<?xml version="1.0" encoding="UTF-8"?><svg id="a" xmlns="http://www.w3.org/2000/svg" viewBox="0 0 252.64 120.24"><defs><style>.b{fill:#ffc5e7;}</style></defs><path class="b" d="M155.28,117.1c.5,.03,.31-.39,.38-.46-.83,.1-.36,.57-.38,.46Z"/><polygon class="b" points="147.12 118.14 147.26 117.97 146.06 118.4 147.12 118.14"/><path class="b" d="M139.47,118.17c.72,.71,2.77-.12,4.13,.13l.23,.16,.61-.58c-1.65,.1-3.8,.48-4.97,.29Z"/><path class="b" d="M135.4,116.62c.25,.28-.88,.24,.95,.09-.09-.03-.12-.05-.17-.07-.16,0-.39,0-.78-.02Z"/><path class="b" d="M136.18,116.64c.8-.02-.53-.23,0,0h0Z"/><path class="b" d="M132.47,116.79l1.06-.24c-.22-.16-1.16-.2-.81-.32-1.09,.13-.86,.3-.25,.57Z"/><path class="b" d="M131.46,117.3l.55-.1c-.1-.07-.24-.09-.55,.1Z"/><path class="b" d="M133.17,116.98l-1.17,.22c.15,.12,.17,.35,.53-.08-.1,.21,.13,0,.63-.14Z"/><path class="b" d="M133.83,117.09c.59,.16,1.36,.26,.3,.5,2.03-.09,1.73-.59-.3-.5Z"/><path class="b" d="M139.08,118.91l.8,.21,.69-.24c-.34,.12-1.53-.19-1.48,.03Z"/><path class="b" d="M125.87,116.37c-.07,.15,.35,.41,.43,.6l.78-.17c-.4-.11-1.16-.21-1.21-.44Z"/><path class="b" d="M126.3,116.97l-1.17,.25c1.05,.04,1.24-.08,1.17-.25Z"/><polygon class="b" points="131.26 118.09 133.19 117.55 130.89 118.1 131.26 118.09"/><polygon class="b" points="121.4 116.29 122.07 115.95 120.88 116.46 121.4 116.29"/><path class="b" d="M118.44,116.31c.5-.28-.66-.5-.14-.67-.81,.04-1.5,.28-2.12,.49,.66-.11,1.36-.07,2.26,.18Z"/><path class="b" d="M115.13,116.43c.33-.06,.67-.18,1.05-.31-.35,.06-.7,.15-1.05,.31Z"/><path class="b" d="M123.13,117.12c-.09-.09-.26-.34-.92-.45l.45,.43h.46Z"/><path class="b" d="M122.69,117.12h-.02l-.99-.05,1.01,.05Z"/><path class="b" d="M123.25,117.12h-.12s.07,.05,.12,0Z"/><path class="b" d="M128.2,117.68c-.69,.23-2.13,.48-.74,.85,.5-.29-.3-.5,.74-.85Z"/><path class="b" d="M123.81,117.66l1.24,.11c-.02-.11-.25-.28,.1-.39l-1.34,.28Z"/><polygon class="b" points="123.2 117.79 123.81 117.66 123.35 117.62 123.2 117.79"/><path class="b" d="M117.25,116.87c-.54,.18-1.13,.18-1.79,.2,.71,.1,1.44,.16,2.14,.17,.1-.13,.41-.37-.35-.37Z"/><path class="b" d="M119.89,117.03l-.12,.02c.07,.04,.13,.05,.12-.02Z"/><polygon class="b" points="108.92 116.92 109.03 117 109.05 116.93 108.92 116.92"/><path class="b" d="M117.72,117.31c.53,.09,.85,0,1.16-.13-.4,.03-.82,.06-1.28,.05-.05,.06-.05,.1,.12,.08Z"/><path class="b" d="M113.3,116.59c.28,.1,.59,.18,.92,.26-.27-.14-.82-.36-.92-.26Z"/><path class="b" d="M119.59,116.93l.08-.02c-.17-.09-.15-.05-.08,.02Z"/><path class="b" d="M119.59,116.93c-.28,.06-.49,.16-.71,.25,.33-.03,.63-.07,.89-.13-.07-.03-.13-.08-.18-.12Z"/><path class="b" d="M106.87,119.61c.11-.39,1.52-.72,2.73-.27,1.2-.27,.45-1.59-.57-2.34-.04,.17-.05,.33-1.28,.53,.42,.23,2.72,.57,1.67,.91-1.63,.17-1.33-.17-2.12-.4,.66,.51-2.09,.66-1.76,1.4l1.44-.22c.02,.11-.5,.28-.1,.39Z"/><path class="b" d="M111.37,117.09l.51-.04c-.57-.08-.98-.25-1.74-.58-.85,.17-1.02,.32-1.09,.45l2.49,.11-.17,.06Z"/><path class="b" d="M114.15,117.11c-.4,.42-1.62,.58-.89,1.06,1.49,0,1.05-.34,1.94-.51-2.4,.06,.69-.22-1.03-.5,.47-.06,.9-.08,1.3-.09-.43-.06-.84-.13-1.23-.22l.05,.03h0c.1,.06,.14,.1,.02,.06,0,0-.04,0-.05,0-.02,.06-.06,.11-.11,.16-.69-.1-.11-.11,.11-.16,0-.02,.03-.04,.03-.06h0l-2.4,.18c.51,.07,1.14,.07,2.27,.05Z"/><path class="b" d="M126.16,119.45c-.07-.04-.07-.07-.08-.1-.16,.05-.22,.09,.08,.1Z"/><path class="b" d="M125.18,119.18c.18-.06,.32-.23,.89-.18,.49,.14,0,.21,.02,.35,.34-.11,1.2-.3,.13-.52l-.17,.06c-.97-.16-2.2-.71-2.03-.77,.28,.39,.52,.67,1.16,1.06Z"/><path class="b" d="M119.59,118.26l-2,.18,1.01,.39-.05-.22c1.14,.11,.89-.17,1.04-.34Z"/><polygon class="b" points="108.7 116.7 108.98 116.25 107.81 116.87 108.7 116.7"/><polygon class="b" points="106.1 116.68 106.21 116.29 105.52 116.51 106.1 116.68"/><path class="b" d="M161.89,98.77l.55-.23c-.26,.09-.43,.16-.55,.23Z"/><path class="b" d="M157.77,99.61l-.06,.21c.17-.15,.23-.24,.06-.21Z"/><path class="b" d="M80.8,115.2c.9,.19,1.93,.58,1.75,.17l-.33-.38c-.57,.19-1.02,.23-1.42,.21Z"/><path class="b" d="M123.7,106.87l-.26-.1-.53,.48,.79-.38Z"/><path class="b" d="M124.1,105.02l1.15,.15c-.26-.07-.63-.12-1.15-.15Z"/><path class="b" d="M174.09,97.7l-.66,.47c1.07-.05,.59-.25,.66-.47Z"/><path class="b" d="M79.53,115.82c-.73-.21-1.31-.31-1.83-.36,.87,.29,1.57,.71,1.83,.36Z"/><path class="b" d="M161.23,103.61c.34-.15,.47-.27,.44-.36-.35,.15-.54,.27-.44,.36Z"/><path class="b" d="M75.57,115.36c.13,.05,.25,.08,.38,.12,.54-.04,1.09-.07,1.74-.01-.65-.22-1.39-.37-2.13-.11Z"/><path class="b" d="M89.81,101.43c-.06-.02-.14-.02-.19-.04-.02,.06,.07,.06,.19,.04Z"/><path class="b" d="M65.05,98.25c.24-.04,.63-.06,1.01-.08-.18-.02-.49,0-1.01,.08Z"/><path class="b" d="M95.67,116.17c.55,0,.09-.04,0,0h0Z"/><path class="b" d="M98.29,117.97c-.12,.04-.21,.1-.23,.2,.05-.1,.13-.17,.23-.2Z"/><path class="b" d="M69.94,117.75h-.05c.16,.09,.13,.07,.05,0Z"/><path class="b" d="M96.49,116.39c-.2-.06-.44-.11-.7-.16,.11,.04,.32,.09,.7,.16Z"/><path class="b" d="M96.39,116.18l.48,.06c.07-.07,.01-.12-.48-.06Z"/><path class="b" d="M94.9,116.16c.31,0,.61,.04,.89,.08-.11-.03-.15-.06-.12-.07h-.77Z"/><path class="b" d="M134.9,98.08s-.08-.02-.12-.03c-.55,.21-.3,.17,.12,.03Z"/><path class="b" d="M94.24,108.45s-.04,.02-.06,.03h.08l-.02-.03Z"/><path class="b" d="M96.16,107.86c-.77,.64-1.25,.64-1.91,.62l.82,1.14,1.08-1.77Z"/><path class="b" d="M171.58,96.26l-1.37-.02c1.38-1.04,2.38-1.16,1.14-1.33,.34,1.39-4.99,1.44-4.84,2.8l-.95-.06c.25-.05,.28-.14,.53-.19-1.86-.22-1.04,1.29-3.3,1.6-.8,.06-1.38-.02-.89-.29l-1.66,.69c-.51,.08-.43-.18,.07-.26l-2.62,.66v-.04c-.32,.29-1.11,.79-1.51,1-.71-.07,.31-.2,.11-.34l-1.41,.59c-.66-.24,.49-.79,1.52-.93-1.63-1.08-1.16,.56-4.27,.31l1.36-.42c-1.03-.6-2.06-.13-3.7-.32,.41,.18,3.34,.63,1.8,1.25-.47-.02-1.07,.05-1.89,.46-.09-.48-.91-.23-1.97-.03l-.03-.64c-1.11,.36-.97,.67-1.6,1.06-1.29,.14-1.62-.31-1.98-.68-2.05,.22,1.53,.57-.87,1.06-1.74,0-2.9,.41-4.89,1.07-1.22-.06,.16-.42-.3-.54l-.99,.65c-.26,.02-.2-.14-.17-.23-.87,.32,.01,.65-1.38,1-.29,.75-3.02-.67-4.66,.34-.45-.13,.16-.41,0-.64-2.33,.82-2.01,.62-3.89,1.55l-1.72-.23c1.29,.34-.22,1.08-1.55,1.7,.46,.18,.86,.34,1.12,.41l-2.17,.59c-.28-.07-.08-.32,.25-.62-.14,.07-.28,.14-.39,.2-.81-.15-.45-.56,.08-.98l.84,.3c.5-.45,.96-.93,.81-1.29-.13,.09-.4,.18-.7,.25,.13-.12,.21-.23,.14-.28-.08-.06-.3,.11-.64,.31l-.58-.65-.09,.29-2.93-.12c-1.98,.94-3.66,2.19-6.9,2.85,.75-.61,.08-.87,.05-1.49,.97,.55,2.51-.56,4.22-.62-.89,.03-.73-.29-.52-.41l-2.96,.93c.01-.51-.69-.31-1.5-.42,.71,.93-2.18,.91-3.38,1.36-.12-.32,.14-.71,1.65-.79-1.75-.57-2.01,1.42-3.71,.97,.37-.05,.57-.02,.7-.21-.82,.4-2.95,.41-2.49,.06l.37-.05c-2.45,.15-7.42,.93-7.67,1.82-.04-.11,.18-1.06,.31-1.25-1.33,1.13-2.64,2.27-3.94,3.43,.28-.78-1.44-2.28,.52-2.99-.59-.02-1.33-.03-2.52,.4,.41,.04,1.14,.9,.61,1.05-1.6-.59-1.09-.28-3.03-.69,.62,.07,.13,1.3-.81,1.4,.12-.19-.25-1.1,.07-1.27l-2.15,1.5c.55-.3-.05-.96-.63-1.18,.28,.18-2.02,.32-2.62,.54l1.03,.09c-2.66,.28-2.32,1.98-4.91,2.44,.27-.29,.51-1.56-.84-1.43-.5,.7-2.14,3.21-4.29,4.16l-.5-.22-1.65,.76c.87-1.1,3.53-3.58,5.09-4.58-1.03-.06-.35-.33-1.82,0-.58-.2,.71-.62,1.14-.72-1.16,.16-2.32,.32-3.47,.53,.3,.62-2.46,1.26-2.2,1.77l3.54-1.53c.28,.62-1.73,2.36-4.14,2.79-.67-.12,.18-1.27,.08-1.48-.26,.3-2.18,.96-2.44,.85l.94-.59c-1.41,.05-1.96,1.43-3.72,1.22-.56,.11-1.88-.39-1.87,.02,1.11,.5,1.9,2.74,1.46,3.46-.15,0-1.74,.03-2.86-.03l-.12-1.12c.37,.15,.67,.28,.83,.39,.89,.66-1.49,1.34-.73,1.91,.05-.18,.57-.38,.79-.43,.58,.19-.28,.55,1.01,.55,.26-.67,2.62,.22,.65-.54,1.27-.12,1.33,.22,2.81,.29-.44-.47,1.42-1.42,2.69-1.54-.08,.17,.19,.41,.32,.52,2.58,.21,3.95,.6,6.36,.73,.21,.18,1.37,.44,.86,.7,.35-.1,.68-.32,1.43-.29,1.41,.66-1.66,0-.6,.77,.11-.39,1.95-.45,3.02-.65-.3-.63-2.44-.23-3.52-.05,.04-.84,1.93-1.63,4.46-1.9,2.01-.11,.84,.59,1.19,.48,3.75,.33,3.27-1.33,6.36-.58,1.22,.59,.01,1.07,.27,1.47-1.64,.13-2.49-.45-3.6-.47l1.35,.31c-.53,.16-1.62,.25-2.21,.07,1.02,.53,6.35,.37,9.24,.91,.52-.16,1.42-.31,1.01-.55l-.92,.04c-.83-.46,1.75-.53,.6-.78,1.24-.26,2.64-.69,4.36-.39l.31,.62c-.03-.18-1.12-.4-1.61-.23,.73-.25,2.63,.92,3.45,.14l-1.2-.46c1.25-.27,2.79-.87,4.32-.64-.68-.62-.36,.06-1.43-.68,.92,.91-3.92-.16-2.43,.81-1.09-.86-1.93-.41-3.36-1.16,.04,.2,.5,.4-.78,.26-.06,.06-.2,.13-.29,.17l-.09-.02,.07,.03c-.06,.03-.06,.03,.03,0,.3,.1,.55,.22,.65,.33-.66,.44-2.7,.35-3.41,.56-.76-.13,.33-.22-.08-.45l-1.05,.32c-.09-.45-2-.82-.19-1.02l-1.62-.08c-.94-.29-2.25-.45-3.07-.29-.76-.13-1.95,.41-1.27,.09l-2.55,.16-.02-.11c-2.5-.18-5.2,.5-8.02-.47-.85,.07-1.73,.16-3.13-.04l-.25-.4c-1.09,.07-3.23-.58-3.72-.2-1.1-1.1-5.23-.55-7.12-.85l.69,6.26h0l-.07-.51c1.26-.31,2.42-.77,3.92-1.39l-.21-.41c.63-.36,1.51-.52,2.5-.66,1-.12,2.11-.2,3.18-.47-.11,.2-.66,.28-1.07,.27,1.4,.2,2.7-.29,3.98-.81,1.27-.52,2.54-1,3.78-.88,.55-.28,.99-.3,1.42-.28-.05,.01-.1,.03-.14,.05l.24-.04c.27,.02,.55,.06,.86,.07-.26-.06-.52-.1-.73-.1,.45-.1,1.12-.29,1.77-.53l.37,.42,.15-.04c.69,.06,.49-.31,.07-.61,.33-.14,.62-.28,.84-.44,.67,.67,1.73-.56,2.6,.13,.39-.47,3.34-.89,3.58-1.76,.04,.11,.25,.13-.12,.19,.77-.02,1.54-.03,2.19-.37l.41,.56,1.53-1.06c1.06,.22,1.5,.37,.57,.99,2.3-1.08,1.92-.55,3.87-1.53l-.05,.41c.73-.11,1.84-.79,2.32-.52,1.73,.51,8.16-.9,12.48-.68-.95-1.07,2.03,.3,2.09-.62,.28,.25,.88,.33,.23,.65,2.13-.51,3.3,.07,4.71-.85,.28,.25-.42,.45-.18,.59,.17-.08,.66-.31,.9-.18,.24,.14-.29,.26-.62,.42,2.21-.29,2.34-1.16,2.41-1.97,1.16,.25,1.72,.13,2.47-.48,.42,.21,1.1,.41-.26,.66,.78-.05,4.77-.16,4.77-.81,.26,.13,1.09-.08,1.28-.18,1.74-.18,1.9-.14,3.6-.41l-.49-.04c.58-.85,1.39-.35,2.76-.61l-.03,.08c3.22,.13,1.32-.45,4.51-.24l-.23-.45c.14-1.07,2.84,.25,4.58-.44l-.69-.17c.93-.5,2.96,.96,3.97,.93,.23,.06-.32,.19-.61,.31,2.69,.2,.24-.67,2.14-1.12,.41,.28-.32,.93,.99,.78,.7,.15,3.57-1.76,5.46-1.44-.44-.19-.87-.37-.02-.73,1.35-.32,3.88,.21,4.95-.84,.19,.03,.27,.09,.29,.15,1-.42,3.31-1.06,3.83-1.67,1.35,1.36,6.21-2.33,6.59-.9,1.07-.33,2.17-.71,3.26-1.2l-.03,.18c1.09-.4,1.78-.87,2.24-1.3,.46-.43,.7-.84,.9-1.25,.49-.27,.28,.09,.29,.19,.8-.56,1.34-1.11,1.74-1.59l2.44-2.92-3.98,.02c-1.41,0-2.07,.22-3.9,.87l-.29-.48c-.67,.32-4.42-.56-7.36,.16,.03-.06,.08-.16,.32-.24-3.32,.74-8.07-.98-9.21,.88l-2.19,.55c2.86,0-.39,.8,.8,1.05-1.12,.16-2.93-.4-1.55-.56l.22,.08c.46-.96-3.56-.16-3.52-.8-5.62,.32-11.12,.06-16.38,.28l.64,.7-1.84,.05c-.49-.15-.67-.54,.64-.57-.71-.38-2.18,.45-2.21,.61-2.58-.17,.96-.9,.17-.88l-1.07,.11,.24,.07c-.85,.34-.91,.66-2.49,.7-1-.1-.53-.43-.93-.43,0-.05-.13-.07-.6,0l-2.32,.05,.95,.53c-1.01,.33-2.18,.08-1.08,.68-1.62-.93-8.64,.06-9.62-.21-1.42,.49-2.83,.55-4.59,.59,.44,.1,.73,.73-.78,.73,.49-1.37-2.8-.45-4.07-1.35,1.12,.59-4.3,.37-2.54,1.19-1.27-.05-.1-.5-1.07-.77-2.98,.66-6.64-.02-10.35,.34-.05,.18,.59,.42-.2,.72l-2-.78c-.73,.12-.63,1.05-2,.5,.2,.14,.49,.35,0,.43-7.32-.5-14.84,1.42-22.32,.17,1.02,.29,.35,.36-.41,.41,.5,.06,0,.43,.12,.67l-3.13-.51c-.53,.69-3.32,.21-3.61,.85l.97-.16c-1.27,.81,1.9,1.57,1.76,2.54,1.42-.92,3.91,1.07,6.25-.26,.54,.17-.44,.33-.14,.54,.59-.44,1.32-.56,2.68-.44l-.15,.11c3.81-.29,5.47,.04,9.77,.1l-.34-.46c.92,.02,1.13,.16,1.56,.26,1.02-.77-2.59,.08-1.66-.75,1.27,.9,6.5-.3,7.38,.75,1.42-.06-.44-.53,.98-.59l.39,.28,.34-.4c.93,.02,1.42,.37,1.47,.61-.23-.02-.64,.1-.88,.13,1.22,.29,3.39-.28,3.81-.19l-1.37-.12c3.86-.46,8.6-.3,12.31-1.09l-.29-.21c2.83-.55,2.3,.13,5.42-.21l-.11,.06c.62-.25,1.45-.41,2.31-.42-.78,.3,1.51,.44,.49,.78,3.07-.59,1.51-.42,3.52-1.35l.49,.35c.68-.37,.73-.55,2.29-.72-1.27,.38,1.03,.52-.39,1.01,3.32,.65,4.84-1.05,6.4,.06,1.46-1.1-2.87-.43-2.04-.69-.72-.3,1.21-.83,2.24-.77,1.05-.03,1.85,1.23,4.49,1.08-.26,0-.28,.09-.54,.09,1,.21,1.92-.45,3.15-.08,.65-.65,1.57-.04,1.73-.84l-2.41,.3c1.36-.27,2.6-1.26,4.89-.92-.17,.17-.83,.41-1.29,.55,.67,.2,1.27-.22,1.96,0-.16,.8-2.93,.31-4.37,.99,.73,.3,2.75-.71,2.06,.18,1.01-1.14,2.61,.01,4.35-.91l-.09,.48c.28-.09,.85-.34,1.38-.35l-.91,.66c1.42-.59,2.81,.32,4.19-.03-2.91,.16-.68-.54-1.93-.83,3.55-.81,2.12,1.14,6.12,.72-.54,.09-2.05-.19-1.21-.45,.77,.06,1.79,.19,2.27,.42,2.65-.23-.43-.47,.69-.81,.93,.53,1.29-.3,2.45-.54l.03,.48c3.04,.16,.75-1.04,3.5-.8l-1.12,.72,1.41-.24-.27,.56c1.53-.48,2.01-.4,3.54-.32-.37-.32,.16-.88,1.5-.96,.93,.24-.49,.48,1.41,.32-.41,.32-.87,.72-1.72,.32-.08,.16-.41,.32-.49,.48,1,.28,2.48-.05,3.17-.08-.27,0-.58-.02-.75-.08l2.72-.8c.44,.16,.11,.32-.23,.48,.56-.08,.93-.32,1.75-.4-.19,.4-.12,.8-1.28,1.04l2.61-.56c.18,.16,1.37,.4,1.04,.56,1.47,.16,3.54-.93,5.48-.72,.1-.08,.29-.16,.7-.24,1.44,0,2.77,.25,4.32,.04l-2.37-4.45c-.13,.22-.25,.48-.4,.77-.37,.03-.73,.02-1.08,0-.42,.39-.08,.42,.23,.5,.28,.07,.58,.22-.31,.94-1.37,.98-.81-.24-1.41-.17-.56,.66-1.84,1.87-3.71,1.77,.53-.28,.99-.3,1.48-.5Zm-19.95,4.71c.38-.17,1.1-.62,1.44-.39-.35,.62-.74,.43-1.44,.39Zm-31.07,5.32c.28-.19,.75-.16,1.29-.04-.37,.08-.8,.11-1.29,.04Zm-30.93,10.04s-.03,.01-.04,.02c-.89-.23-.57-.14,.04-.02Zm1.85,.29c.19-.06,.18-.13,.1-.2-.13,.12-.55,.11-1.03,.06,.13,.13,.36,.23,.92,.14Zm37.38-21.49l.37,.11c-.81,.18-.59,.04-.37-.11Z"/><path class="b" d="M124.04,105.23c.12,.07,.16,.15,.2,.24,.15-.1,.14-.19-.2-.24Z"/><path class="b" d="M174.21,97.61h-.06s-.05,.06-.06,.09l.12-.09Z"/><path class="b" d="M62.39,119.19c-.38-.09-.59-.19-.72-.29-.03,.12,.14,.23,.72,.29Z"/><path class="b" d="M101.37,116.14l-1.2,.09c.58,0,.78,.11,1.07,.19-.02-.11-.25-.28,.13-.28Z"/><path class="b" d="M111.66,119.4c.18-.06,.37,0,.54-.05l-.04-.23c-.74,0-1.27,.17-.5,.28Z"/><path class="b" d="M102.43,117.78c.08,.41,.84,.29,1.67,.24-.05,0-.1,0-.15,0,.26-.56-.63-.4-1.53-.24Z"/><path class="b" d="M104.3,118.01c.26-.01,.52-.01,.77,.01,.1-.22-.31-.06-.77-.01Z"/><path class="b" d="M93.85,116.43c.39,.12,.27-.51,.49-.34,.46-.5-2.66,.53-.49,.34Z"/><polygon class="b" points="103.07 119.13 102.78 118.63 102.3 119.01 103.07 119.13"/><path class="b" d="M96.47,118.55l1.33,.18c-.02-.08,.15-.13,.36-.16-.82-.04-1.72-.17-1.7-.03Z"/><path class="b" d="M98.16,118.58c.43,.02,.84,.03,1.08-.05-.23,0-.73,0-1.08,.05Z"/><polygon class="b" points="101.23 119.23 100.84 119.11 99.9 119.04 101.23 119.23"/><path class="b" d="M82.1,117.86l-1.47,.07c-.16,.16,.24,.29,.78,.25,.36-.1,.9-.14,.68-.32Z"/><path class="b" d="M86.45,119.43c-.39-.12-.41-.23-.63-.41l-.07,.62,.7-.21Z"/><path class="b" d="M82.19,119.38c-.15,.17-2.14,.39-.29,.44,.16-.16,1.63-.24,.29-.44Z"/><polygon class="b" points="62.68 116.58 62.32 116.69 62.65 117.65 62.68 116.58"/><path class="b" d="M81.16,109.84c-1.76,.1-.29,.7-1.9,.7-.36,.32,1.31,0,.94,.28,.99-.46,1.56-.41,.96-.99Z"/><path class="b" d="M80.2,110.82c-.16,.07-.32,.15-.5,.26,.29-.12,.42-.2,.5-.26Z"/><polygon class="b" points="60.95 97.9 59.83 97.74 60.57 98.05 60.95 97.9"/><path class="b" d="M58.86,98.76l-.29-.64-.64,.62c.25-.04,.73-.12,.93,.02Z"/><path class="b" d="M148.39,100.19l-.06,.17c.2,.14,.45,.11,.97,.06l-.91-.23Z"/><polygon class="b" points="163.11 97.86 162.86 97.9 163.46 98.38 163.11 97.86"/><path class="b" d="M174.12,93.91c-.34,.15-.69,.47-1.1,.6,.77-.43,1.52,0,1.1-.6Z"/></svg>