<?xml version="1.0" encoding="UTF-8"?><svg id="a" xmlns="http://www.w3.org/2000/svg" viewBox="0 0 1011.3 768"><defs><style>.b{fill:#353535;}</style></defs><path class="b" d="M861.13,586.11c0,58.84-29.91,106.14-89.72,141.9-17.23,26.98-39.5,40.31-66.8,39.98-48.44-.65-102.4-22.27-161.89-64.85-51.04-36.41-86.31-71.52-105.81-105.33-18.53-31.53-27.79-51.36-27.79-59.49,0-10.08,7.31-21.46,21.94-34.13,13.65-12.03,24.38-18.04,32.18-18.04s11.22,4.88,11.22,14.63c0,4.23-.81,9.43-2.44,15.6,17.23,46.81,53.64,90.37,109.23,130.68,55.59,40.31,105.98,60.3,151.16,59.98,39.98-.33,59.98-27.63,59.98-81.92,0-29.91-23.32-89.64-69.97-179.2-46.65-89.56-69.97-153.68-69.97-192.36,0-25.36,7.15-47.95,21.46-67.78,12.03-16.58,33.16-36.25,63.39-59,5.53-4.23,11.05-6.34,16.58-6.34,8.78,0,13.17,3.74,13.17,11.22,0,5.2-2.93,10.57-8.78,16.09-25.03,23.73-37.55,52.66-37.55,86.8,0,38.03,23.41,100.77,70.22,188.22,46.81,87.45,70.22,141.9,70.22,163.35Zm145.78-447.63c-12.68,44.54-29.91,83.22-51.69,116.05-9.74,14.63-19,21.94-27.78,21.94s-23.24-6.99-44.37-20.97c-6.5-4.23-9.75-8.61-9.75-13.17,0-6.83,5.69-11.7,17.07-14.63,8.45-2.6,18.04-17.39,28.77-44.37,10.08-25.68,15.12-45.84,15.12-60.46s-6.01-22.92-18.04-22.92c-4.23,0-9.59,.65-16.09,1.95-12.68,1.95-39.98,10.57-81.92,25.84-4.88,1.63-9.26,2.44-13.17,2.44-9.75,0-14.63-3.25-14.63-9.75s5.04-11.7,15.12-16.58c36.41-18.2,72.33-33.48,107.76-45.84,11.38-4.23,19.5-6.34,24.38-6.34,7.48,0,17.22,10.4,29.24,31.21,18.2,5.53,29.42,9.59,33.65,12.19,7.15,4.23,10.73,10.73,10.73,19.5,0,6.18-1.46,14.14-4.39,23.89Z"/><path class="b" d="M404.72,175.54c-15.6,110.53-49.9,230.48-102.89,359.86-63.39,155.71-123.69,233.24-180.91,232.59-32.83-.65-71.35-21.62-115.57-62.9-3.58-3.58-5.36-8.13-5.36-13.65,0-10.08,4.06-15.12,12.19-15.12,2.6,0,5.36,.81,8.29,2.44,30.88,18.85,56.08,28.93,75.58,30.23,43.56,2.6,94.92-70.54,154.09-219.43,57.21-144.98,89.72-276.32,97.52-393.99,1.63-21.46-3.74-36.08-16.09-43.89-10.4-6.5-27.96-9.1-52.66-7.8-24.71,1.3-53.96,19.99-87.77,56.08-37.06,39.98-63.72,86.15-79.97,138.48-2.28,7.48-3.41,14.63-3.41,21.46,0,13.98,10.4,32.18,31.21,54.61,3.58,3.58,5.36,6.83,5.36,9.75,0,6.18-4.88,9.26-14.63,9.26-3.9,0-7.15-.65-9.75-1.95-48.76-31.21-73.14-59.33-73.14-84.36,0-15.93,6.5-37.55,19.5-64.85,18.53-38.36,45.19-75.74,79.97-112.15C179.44,35.43,208.7,13,234.06,2.93c4.88-1.95,10.24-2.93,16.09-2.93,11.7,0,30.23,4.55,55.59,13.65,2.28-2.28,5.69-3.41,10.24-3.41,13,0,37.55,12.84,73.63,38.52,13,9.43,19.5,32.18,19.5,68.27,0,17.55-1.46,37.06-4.39,58.51Z"/></svg>