<?xml version="1.0" encoding="UTF-8"?><svg id="a" xmlns="http://www.w3.org/2000/svg" viewBox="0 0 127.76 127.77"><defs><style>.b{fill:#ffbde3;}</style></defs><g><path class="b" d="M.02,64.82C.02,63.56,0,62.3,0,61.03c.01-7.16-.05-14.32,.17-21.48,.12-4.08,.21-8.16,.69-12.22,.51-4.22,1.49-8.32,3.49-12.1C7.69,8.92,12.83,4.73,19.62,2.53c3.73-1.21,7.57-1.79,11.47-1.97,1.01-.05,2.03-.07,3.03-.12C46.4-.25,58.7,.11,70.99,.02c3.84-.03,7.68,0,11.52,.05,3.42,.04,6.84,.08,10.25,.29,1.28,.08,2.57,.09,3.84,.2,1.01,.09,2.03,.19,3.04,.29,1.12,.11,2.24,.27,3.35,.46,1.49,.26,2.98,.61,4.43,1.05,3.64,1.1,6.93,2.83,9.87,5.27,4.47,3.73,7.1,8.53,8.54,14.07,.88,3.38,1.26,6.83,1.45,10.31,.39,7.41,.45,14.83,.46,22.25,.02,10.26,.06,20.51-.09,30.77-.06,4.53-.2,9.06-.57,13.58-.21,2.55-.58,5.09-1.27,7.56-.48,1.71-1.08,3.37-1.79,5.01-.6,1.36-1.25,2.68-2.11,3.89-.18-.02-.32-.09-.42-.25-.84-1.39-1.81-2.69-2.73-4.04-1.24-1.83-2.48-3.66-3.79-5.45-2.74-3.75-5.84-7.18-9.04-10.52-1.24-1.3-2.51-2.57-3.86-3.76-1.12-1-2.26-1.98-3.37-2.98-.58-.53-1.28-.94-1.75-1.6,1.16-1.84,2.28-3.7,3.2-5.67,2.13-4.55,3.35-9.33,3.66-14.33,.45-7.41-.99-14.44-4.44-21.04-1.76-3.36-3.95-6.41-6.55-9.16-1.56-1.65-3.26-3.13-5.08-4.48-4-2.96-8.38-5.16-13.19-6.47-3.79-1.04-7.66-1.49-11.6-1.4-2.27,.05-4.51,.25-6.73,.69-5.76,1.14-11.08,3.31-15.8,6.86-1.14,.86-2.3,1.72-3.37,2.66-1.73,1.51-3.27,3.21-4.66,5.05-2.23,2.96-4.2,6.06-5.57,9.53-1.7,4.29-2.7,8.71-2.94,13.31-.32,.03-.65,.03-.97,.05-1.26,.06-2.54-.3-3.77,.24-.24,.1-.51,.15-.74-.05-.23-.2-.45-.21-.72-.09-.21,.1-.44,.06-.66,0-.31-.06-.62-.08-.93,0-.78,.23-1.57,.33-2.38,.43-2.6,.32-5.23,.4-7.76,1.1-.86,.24-1.73,.26-2.59,.4-1.12,.19-2.24,.38-3.34,.71h0ZM105.72,31.64c5.17,0,9.37-4.65,9.1-9.78-.27-5.05-4.41-9.12-9.72-8.91-4.91,.19-9.15,4.19-8.97,9.68,.16,5.11,4.47,9.17,9.6,9.02h-.01Z"/><path class="b" d="M.02,64.82c1.09-.33,2.21-.53,3.34-.71,.86-.14,1.73-.17,2.59-.4,2.53-.7,5.17-.79,7.76-1.1,.81-.1,1.6-.2,2.38-.43,.3-.09,.62-.06,.93,0,.22,.04,.45,.08,.66,0,.26-.12,.49-.11,.72,.09s.5,.16,.74,.05c1.23-.53,2.52-.18,3.77-.24,.32-.02,.65,0,.97-.05-.08,2.51-.03,5.02,.37,7.5,2.15,13.37,9.2,23.3,21.05,29.83,3.85,2.12,8.03,3.32,12.32,4.15,1.15,.22,2.34,.32,3.53,.35,2.58,.07,5.14,.12,7.71-.22,8.74-1.18,16.32-4.78,22.72-10.85,2.02-1.91,3.77-4.05,5.37-6.31,.47,.66,1.16,1.07,1.75,1.6,1.11,1.01,2.25,1.99,3.37,2.98,1.34,1.19,2.62,2.46,3.86,3.76,3.2,3.35,6.3,6.78,9.04,10.52,1.3,1.79,2.54,3.62,3.79,5.45,.91,1.34,1.88,2.65,2.73,4.04,.1,.17,.24,.23,.42,.25-1.29,1.94-2.86,3.63-4.65,5.12-1.49,1.25-3.03,2.42-4.78,3.28-3.53,1.75-7.26,2.8-11.16,3.32-5.03,.67-10.1,.76-15.17,.85-11.15,.21-22.31,.12-33.47,.11-6.99,0-13.97-.09-20.95-.47-5.03-.27-9.97-1.01-14.66-2.99-5.15-2.17-9.11-5.71-12.01-10.44-1.73-2.81-2.74-5.9-3.48-9.1-.85-3.7-1.05-7.47-1.23-11.25C.05,87.07,.01,80.64,0,74.2v-8.77c0-.21,.01-.41,.02-.62h0Z"/><path class="b" d="M37.93,63.97c-.05-5.29,1.37-10.18,4.38-14.5,5.57-8,13.31-11.9,23.06-11.48,6.69,.29,12.42,3,17.11,7.79,9.22,9.41,9.86,24.22,1.61,34.43-.11,.13-.23,.26-.34,.39-.85-.27-1.59-.76-2.36-1.17-1.35-.73-2.73-1.41-3.98-2.32-.66-.49-1.35-.99-2.11-1.29-1.16-.46-2.22-1.1-3.32-1.65-1.39-.7-2.74-1.49-4.16-2.09-1.22-.52-2.48-.94-3.67-1.53-.48-.24-1.01-.37-1.39-.78-.26-.27-.56-.38-.93-.38-.49,0-.97-.11-1.39-.34-.91-.5-1.84-.94-2.84-1.23-2.21-.64-4.54-.87-6.63-1.97-.85-.45-1.85-.54-2.82-.62-.88-.07-1.74-.27-2.61-.42-1.09-.19-2.22-.22-3.31-.4-.74-.13-1.48-.02-2.24-.2-.63-.16-1.36-.1-2.04-.22l-.02-.02Z"/><path class="b" d="M37.93,63.97c.68,.12,1.41,.06,2.04,.22,.76,.19,1.5,.08,2.24,.2,1.1,.19,2.22,.21,3.31,.4,.87,.15,1.73,.35,2.61,.42,.97,.08,1.97,.17,2.82,.62,2.09,1.1,4.42,1.33,6.63,1.97,1,.29,1.93,.73,2.84,1.23,.42,.23,.9,.34,1.39,.34,.37,0,.67,.11,.93,.38,.38,.4,.92,.54,1.39,.78,1.19,.59,2.45,1.01,3.67,1.53,1.43,.6,2.78,1.39,4.16,2.09,1.1,.56,2.16,1.19,3.32,1.65,.76,.3,1.44,.81,2.11,1.29,1.25,.92,2.63,1.59,3.98,2.32,.77,.42,1.51,.91,2.36,1.17-2.61,3.15-5.8,5.52-9.55,7.14-10.14,4.39-21.85,1.91-29.37-6.18-3.54-3.81-5.7-8.29-6.58-13.41-.24-1.38-.36-2.77-.32-4.17h.02Z"/></g><polygon class="b" points="23.88 61.93 20.38 54.34 8.71 52.86 0 60.96 0 71.02 13.15 74.17 22.05 71.57 23.88 61.93"/><polygon class="b" points="38.1 61.92 52.37 61.92 68.87 67.5 83.86 80.52 73.68 83.62 54.6 82.5 40.7 67.87 38.05 63.9 38.1 61.92"/><polygon class="b" points="103.5 84.36 97.06 86.39 97.06 99.24 105.58 109.19 113.51 113.26 122.01 114.99 123.14 106.78 118.51 93.99 110.1 86.77 103.5 84.36"/></svg>