<?xml version="1.0" encoding="UTF-8"?><svg id="a" xmlns="http://www.w3.org/2000/svg" viewBox="0 0 252.64 120.24"><defs><style>.b{fill:#fff;}.c{fill:#353535;}.d{fill:#ffb3df;}</style></defs><g><path class="c" d="M79.86,69.13c-.6,4.23-1.91,8.82-3.94,13.78-2.43,5.96-4.74,8.93-6.93,8.9-1.26-.02-2.73-.83-4.42-2.41-.14-.14-.21-.31-.21-.52,0-.39,.16-.58,.47-.58,.1,0,.21,.03,.32,.09,1.18,.72,2.15,1.11,2.89,1.16,1.67,.1,3.63-2.7,5.9-8.4,2.19-5.55,3.43-10.58,3.73-15.08,.06-.82-.14-1.38-.62-1.68-.4-.25-1.07-.35-2.02-.3s-2.07,.77-3.36,2.15c-1.42,1.53-2.44,3.3-3.06,5.3-.09,.29-.13,.56-.13,.82,0,.54,.4,1.23,1.19,2.09,.14,.14,.21,.26,.21,.37,0,.24-.19,.35-.56,.35-.15,0-.27-.02-.37-.07-1.87-1.19-2.8-2.27-2.8-3.23,0-.61,.25-1.44,.75-2.48,.71-1.47,1.73-2.9,3.06-4.29,1.27-1.33,2.39-2.19,3.36-2.58,.19-.07,.39-.11,.62-.11,.45,0,1.16,.17,2.13,.52,.09-.09,.22-.13,.39-.13,.5,0,1.44,.49,2.82,1.47,.5,.36,.75,1.23,.75,2.61,0,.67-.06,1.42-.17,2.24Z"/><path class="c" d="M92.52,75.55c-.02,1.11-.29,2.58-.8,4.41-.81,2.89-1.95,5.13-3.43,6.72-.78,.85-1.66,1.27-2.61,1.27-.37,0-.85-.08-1.44-.24-1.17-.07-2.12-.44-2.86-1.1-.8-.72-1.17-1.65-1.12-2.78,.05-1.32,.5-3.16,1.36-5.53,.95-2.58,1.93-4.43,2.95-5.56,.49-.55,.88-.82,1.19-.82,.42,0,1.11,.44,2.05,1.31,.26-.12,.8-.35,1.61-.69,.41-.14,.72-.21,.93-.21,.49,0,1.03,.45,1.62,1.36,.39,.56,.57,1.18,.54,1.87Zm-2.15,.54c.09-.83,.13-1.36,.13-1.59,0-.52-.16-.78-.49-.78-.12,0-.29,.02-.49,.07l-2.89,1.18c-.34,.14-.53,.21-.58,.21-.1,0-.2-.12-.3-.35-.72,.88-1.39,2.16-2.02,3.83-.49,1.31-.82,2.48-1.01,3.51-.14,.7-.21,1.33-.21,1.9,0,1.92,.59,2.85,1.77,2.8,.47-.01,.98-.2,1.53-.56,1.05-.71,2.02-2.13,2.93-4.26,.87-2,1.41-3.99,1.61-5.95Z"/><path class="c" d="M118.52,81.71c0,2.25-1.14,4.06-3.43,5.43-.66,1.03-1.51,1.54-2.56,1.53-1.85-.02-3.92-.85-6.2-2.48-1.95-1.39-3.3-2.74-4.05-4.03-.71-1.21-1.06-1.97-1.06-2.28,0-.39,.28-.82,.84-1.31,.52-.46,.93-.69,1.23-.69s.43,.19,.43,.56c0,.16-.03,.36-.09,.6,.66,1.79,2.05,3.46,4.18,5s4.06,2.31,5.79,2.3c1.53-.01,2.3-1.06,2.3-3.14,0-1.14-.89-3.43-2.68-6.86s-2.68-5.88-2.68-7.36c0-.97,.27-1.84,.82-2.59,.46-.63,1.27-1.39,2.43-2.26,.21-.16,.42-.24,.63-.24,.34,0,.5,.14,.5,.43,0,.2-.11,.4-.34,.62-.96,.91-1.44,2.02-1.44,3.32,0,1.46,.9,3.86,2.69,7.21s2.69,5.43,2.69,6.25Zm5.58-17.14c-.49,1.7-1.14,3.19-1.98,4.44-.37,.56-.73,.84-1.06,.84s-.89-.27-1.7-.8c-.25-.16-.37-.33-.37-.5,0-.26,.22-.45,.65-.56,.32-.1,.69-.67,1.1-1.7,.39-.98,.58-1.75,.58-2.31s-.23-.88-.69-.88c-.16,0-.37,.02-.62,.07-.49,.07-1.53,.4-3.14,.99-.19,.06-.35,.09-.5,.09-.37,0-.56-.12-.56-.37s.19-.45,.58-.63c1.39-.7,2.77-1.28,4.13-1.75,.44-.16,.75-.24,.93-.24,.29,0,.66,.4,1.12,1.19,.7,.21,1.13,.37,1.29,.47,.27,.16,.41,.41,.41,.75,0,.24-.06,.54-.17,.91Z"/><path class="c" d="M144.28,81.41c-.81,1.21-2.02,3.34-3.62,6.38-.15,.27-.24,.42-.28,.43-.11,.06-.37,.03-.78-.09-.86-.26-1.29-.51-1.29-.75,0-.14,.06-.34,.17-.6,.93-2.18,1.73-4.5,2.4-6.97s.99-4.37,.96-5.68c0-.44-.16-.65-.47-.65-.21,0-.46,.12-.75,.35-1.06,.86-2.43,2.53-4.11,5-2.02,2.99-3.44,5.78-4.27,8.38-.09,.3-.16,.47-.22,.5-.07,.04-.26,0-.54-.09-.42-.15-.83-.36-1.21-.63-.19-.14-.28-.28-.28-.43,0-.02,.09-.27,.28-.73,1.63-4.08,2.45-8.03,2.45-11.85,0-.39-.11-.58-.34-.58-.16,0-.37,.11-.62,.32-1.33,1.12-2.81,3.05-4.44,5.79-1.57,2.61-2.74,5.07-3.51,7.36-.2,.58-.4,.88-.62,.88-.25,0-.76-.28-1.53-.84-.2-.11-.3-.23-.3-.35,0-.14,.14-.35,.41-.63,.51-1.08,1.09-2.95,1.74-5.6,.73-3.02,1.05-5.22,.95-6.59-.19,.19-.5,.49-.95,.92s-.78,.76-1.01,.98c-.16,.16-.3,.24-.43,.24-.19,0-.28-.12-.28-.37,0-.2,.07-.37,.2-.52,.7-.72,1.39-1.57,2.07-2.56,.25-.35,.47-.52,.65-.52,.14,0,.4,.2,.8,.6l.93,.34c.26,.12,.39,.35,.39,.69,0,.1-.01,.21-.04,.32-.31,2.4-.79,4.64-1.44,6.72,2.2-3.96,4.25-6.77,6.14-8.44,.26-.24,.52-.35,.77-.35,.26,0,.66,.17,1.19,.5,.51,.22,.85,.42,1.01,.6,.19,.22,.28,.57,.28,1.05,0,2.54-.29,4.8-.88,6.78,2.43-3.85,4.64-6.7,6.63-8.57,.26-.25,.54-.37,.82-.37,.37,0,.83,.25,1.38,.75,.97,.15,1.43,.74,1.38,1.77-.15,3-.8,5.9-1.94,8.7,.62-.73,1.11-1.37,1.46-1.9,.16-.26,.35-.39,.56-.39,.19,0,.28,.1,.28,.3,0,.12-.06,.27-.17,.45Z"/><path class="c" d="M151.49,74.68c-.3,1.68-1.08,4.47-2.33,8.38,.36-.32,.86-.91,1.49-1.77,.09-.11,.17-.17,.26-.17,.2,0,.22,.17,.07,.52-.06,.14-.58,.99-1.57,2.56-.75,1.19-1.29,2.25-1.64,3.17-.11,.29-.32,.43-.62,.43s-.7-.14-1.21-.43c-.32-.17-.49-.3-.49-.39,0-.07,.07-.24,.21-.49,.67-1.18,1.42-3.16,2.24-5.94,.78-2.69,1.23-4.69,1.33-5.99,.04-.56-.02-.84-.17-.84-.11,0-.31,.14-.6,.41l-1.16,1.08c-.41,.37-.62,.39-.62,.06,0-.1,.06-.22,.17-.37,.58-.82,1.21-1.6,1.87-2.33,.2-.21,.39-.32,.58-.32,.2,0,.49,.14,.88,.41,.57,.15,.89,.24,.95,.28,.29,.17,.43,.5,.43,.97,0,.22-.02,.48-.07,.77Z"/><path class="c" d="M164.05,63.55c.35,.19,.52,.4,.52,.63,0,.16-.12,.24-.35,.24-.05,0-.13,0-.23-.03s-.18-.03-.23-.03c-.47,0-1.05,.52-1.72,1.55-.6,.92-1.42,2.92-2.48,6.01-.1,.27-.14,.44-.11,.49,.04,.09,.2,.14,.49,.15,.73,.06,1.72,.04,2.95-.07,.42-.04,.63,.14,.63,.54,0,.27-.16,.44-.49,.5-.26,.04-1.64,.15-4.13,.34-1.49,4.37-2.4,8.06-2.73,11.09-.01,.16-.02,.3-.02,.43,0,.42,.11,.63,.32,.63,.34,0,1.35-.82,3.04-2.45,.2-.2,.39-.3,.58-.3,.16,0,.26,.07,.3,.21,.04,.15-.02,.32-.17,.52-1.01,1.33-2,2.46-2.97,3.4-.41,.39-.75,.58-1.03,.58s-.7-.22-1.27-.65c-.71-.19-1.06-.56-1.06-1.12,0-.09,.01-.19,.04-.3,.46-3.21,1.36-7.16,2.71-11.85-.66-.09-1.26-.17-1.79-.26-.24-.04-.35-.19-.35-.45,0-.29,.12-.46,.37-.52s.71-.2,1.38-.41c.41-.14,.81-.32,1.19-.56,1.33-4.12,2.38-6.79,3.14-8.01,.44-.7,.9-1.05,1.4-1.05s1.16,.25,2.07,.75Z"/><path class="c" d="M177.32,58.4c.16,.12,.24,.26,.24,.41,0,.22-.14,.34-.43,.34-.12,0-.26-.04-.39-.11-.57-.29-1-.43-1.29-.43-.76,0-1.61,.76-2.54,2.28-3.29,5.35-5.72,12.36-7.3,21.02,2.03-3.9,4.35-7.01,6.96-9.33,.56-.5,.97-.75,1.23-.75,.07,0,.39,.17,.93,.52,.66,.27,1.03,.45,1.12,.52,.32,.29,.49,.78,.49,1.49,0,.2-.01,.42-.04,.65-.21,2.22-.85,4.9-1.9,8.05,.39-.52,1-1.29,1.83-2.3,.2-.21,.37-.32,.5-.32s.21,.08,.21,.24c0,.19-.08,.4-.24,.63-.72,1.05-1.68,2.58-2.87,4.59-.1,.2-.34,.72-.73,1.57-.16,.4-.39,.6-.67,.6-.32,0-.79-.22-1.4-.65-.25-.17-.29-.45-.13-.82,2.14-5.38,3.27-9.39,3.4-12.04,.04-.76-.07-1.14-.32-1.14-.16,0-.5,.21-1.03,.63-.96,.77-2.13,2.14-3.53,4.11-1.84,2.59-3.27,5.23-4.27,7.93-.27,.77-.53,1.16-.77,1.16-.21,0-.63-.26-1.25-.77-.31-.26-.42-.7-.32-1.31,1.44-7.9,3.32-14.65,5.64-20.25,1.72-4.17,3.27-6.89,4.65-8.18,.35-.32,.69-.49,1.03-.49s.79,.2,1.33,.6l1.87,1.53Z"/></g><path class="d" d="M151,67.11s-.6-1.53-2.48-1.56,1.22,4.32,2.07,4.11,4.29-2.25,3.27-3.35-2.86,.79-2.86,.79Z"/><g><path class="b" d="M101.21,4.34c-.2,.84-.73,1.92-1.59,3.22s-1.6,2.18-2.23,2.64c-.45,.32-.88,.48-1.31,.48-.25,0-.85-.19-1.8-.57-.19-.08-.28-.17-.28-.27,0-.16,.21-.23,.64-.23,.71,0,1.25-.14,1.63-.43,.75-.57,1.46-1.35,2.13-2.34,.86-1.26,1.37-2.49,1.54-3.7,.09-.66-.13-1.06-.68-1.2-.25-.05-.5-.06-.76-.01-1.21,.06-2.38,.33-3.5,.8-1.3,4.71-2.5,8.48-3.6,11.3,.06-.02,.29-.16,.69-.4,.23-.13,.41-.19,.54-.18,.23,.04,.45,.27,.67,.68,.18,.34,.27,.59,.27,.75,0,.21-.14,.3-.41,.28-.2-.02-.52,.09-.97,.33-.49,.26-.91,.56-1.27,.91-.17,.17-.35,.26-.54,.26-.26,0-.57-.17-.95-.52-.23-.23-.34-.42-.3-.59,.02-.13,.15-.23,.38-.28,1.91-4.39,3.32-8.41,4.25-12.05-2.94,1.32-4.41,2.55-4.41,3.69,0,.16,.03,.32,.08,.48,.02,.06,.09,.26,.22,.6,.03,.08,.05,.15,.05,.22,0,.22-.09,.33-.26,.33-.24,0-.71-.68-1.39-2.04-.1-.19-.15-.38-.15-.56,0-.46,.29-.96,.87-1.5,.4-.37,1.15-.87,2.25-1.5,1.19-.67,2.25-1.18,3.18-1.52,.09-.38,.14-.7,.14-.94,0-.31,.08-.47,.23-.47,.21,0,.58,.29,1.11,.86,1.29-.38,2.16-.56,2.61-.55,.87,.02,1.48,.47,1.85,1.37,.47,.34,.78,.61,.94,.81,.2,.24,.29,.53,.29,.87,0,.24-.05,.57-.15,.98Z"/><path class="b" d="M107.88,8.92c-.02,.7-.18,1.62-.5,2.77-.51,1.81-1.23,3.22-2.16,4.22-.49,.53-1.04,.8-1.64,.8-.23,0-.54-.05-.9-.15-.73-.05-1.33-.28-1.79-.69-.5-.45-.73-1.04-.7-1.75,.03-.83,.32-1.98,.86-3.47,.59-1.62,1.21-2.78,1.85-3.49,.3-.34,.55-.52,.75-.52,.27,0,.7,.27,1.29,.82,.16-.08,.5-.22,1.01-.43,.26-.09,.45-.13,.59-.13,.3,0,.64,.29,1.02,.86,.24,.35,.36,.74,.34,1.17Zm-1.35,.34c.05-.52,.08-.86,.08-1,0-.33-.1-.49-.3-.49-.08,0-.18,.02-.3,.05l-1.82,.74c-.21,.09-.33,.13-.36,.13-.06,0-.12-.07-.19-.22-.45,.55-.88,1.36-1.27,2.4-.3,.82-.52,1.55-.63,2.2-.09,.44-.13,.84-.13,1.2,0,1.2,.37,1.79,1.11,1.76,.3,0,.62-.12,.96-.35,.66-.45,1.27-1.34,1.84-2.67,.55-1.26,.88-2.5,1.01-3.74Z"/><path class="b" d="M116.12,7.52c0,1.02-.14,2-.41,2.93-.09,.28-.2,.42-.35,.42-.11,0-.35-.16-.73-.47-.19-.16-.23-.38-.14-.67,.22-.71,.33-1.28,.33-1.71,0-.15-.03-.22-.09-.22-.09,0-.25,.14-.46,.42-1.62,2.12-2.84,4.49-3.64,7.12-.26,.84-.48,1.25-.66,1.25-.07,0-.38-.14-.93-.41-.27-.13-.36-.39-.27-.77,.62-2.7,1.28-4.98,1.99-6.84-.58,.61-.95,1.03-1.1,1.25-.06,.09-.15,.14-.26,.14-.13,0-.2-.06-.2-.18,0-.07,.03-.15,.09-.23,.38-.46,.89-1.16,1.54-2.11,.2-.34,.39-.52,.59-.52,.14,0,.43,.11,.86,.33,.24,.12,.28,.29,.12,.5-.17,.23-.5,1.03-.97,2.4-.45,1.34-.77,2.38-.94,3.14,1.06-2.37,2.27-4.46,3.62-6.27,.26-.34,.46-.52,.62-.52,.14,0,.33,.09,.57,.28,.33,.04,.54,.09,.62,.15,.13,.09,.2,.28,.2,.56Z"/><path class="b" d="M122.88,1.38c.22,.12,.33,.25,.33,.4,0,.1-.07,.15-.22,.15-.03,0-.08,0-.15-.02s-.12-.02-.15-.02c-.3,0-.66,.32-1.08,.97-.38,.58-.89,1.84-1.56,3.77-.06,.17-.09,.27-.07,.3,.02,.05,.12,.09,.3,.09,.46,.04,1.08,.02,1.85-.05,.27-.02,.4,.09,.4,.34,0,.17-.1,.28-.3,.32-.16,.02-1.03,.09-2.59,.21-.94,2.74-1.51,5.06-1.71,6.96,0,.1-.01,.19-.01,.27,0,.27,.07,.4,.2,.4,.21,0,.85-.51,1.91-1.54,.12-.12,.25-.19,.36-.19,.1,0,.16,.04,.19,.13,.02,.09-.01,.2-.11,.33-.63,.84-1.25,1.55-1.86,2.13-.26,.24-.47,.36-.64,.36s-.44-.14-.8-.41c-.45-.12-.67-.35-.67-.7,0-.05,0-.12,.02-.19,.29-2.02,.86-4.5,1.7-7.44-.41-.05-.79-.11-1.12-.16-.15-.02-.22-.12-.22-.28,0-.18,.08-.29,.23-.33s.45-.12,.87-.26c.26-.09,.51-.2,.75-.35,.84-2.59,1.49-4.26,1.97-5.03,.27-.44,.57-.66,.88-.66s.73,.16,1.3,.47Z"/><path class="b" d="M129.27,7.52c0,1.02-.14,2-.41,2.93-.09,.28-.2,.42-.35,.42-.11,0-.35-.16-.73-.47-.19-.16-.23-.38-.14-.67,.22-.71,.33-1.28,.33-1.71,0-.15-.03-.22-.09-.22-.09,0-.25,.14-.46,.42-1.62,2.12-2.84,4.49-3.64,7.12-.26,.84-.48,1.25-.66,1.25-.07,0-.38-.14-.93-.41-.27-.13-.36-.39-.27-.77,.62-2.7,1.28-4.98,1.99-6.84-.58,.61-.95,1.03-1.1,1.25-.06,.09-.15,.14-.26,.14-.13,0-.2-.06-.2-.18,0-.07,.03-.15,.09-.23,.38-.46,.89-1.16,1.54-2.11,.2-.34,.39-.52,.59-.52,.14,0,.43,.11,.86,.33,.24,.12,.28,.29,.12,.5-.17,.23-.5,1.03-.97,2.4-.45,1.34-.77,2.38-.94,3.14,1.06-2.37,2.27-4.46,3.62-6.27,.26-.34,.46-.52,.62-.52,.14,0,.33,.09,.57,.28,.33,.04,.54,.09,.62,.15,.13,.09,.2,.28,.2,.56Z"/><path class="b" d="M137.56,8.53c-.72,1.99-1.21,3.66-1.49,5.02,.12-.11,.27-.28,.46-.5s.31-.36,.36-.4c.11-.14,.23-.21,.35-.21,.12,0,.18,.06,.18,.18,0,.07-.03,.15-.09,.25-.73,1.09-1.22,2.18-1.46,3.29-.07,.31-.18,.47-.32,.47-.13,0-.38-.12-.74-.38-.21-.14-.33-.26-.36-.35-.04-.09-.04-.26,0-.52,.33-1.98,.74-3.63,1.23-4.95-.68,1.1-1.61,2.32-2.78,3.66-1.02,1.16-1.76,1.91-2.21,2.23-.33,.23-.58,.34-.75,.34-.14,0-.36-.11-.64-.34-.41-.25-.62-.59-.62-1.03,0-.09,0-.18,.02-.29,.14-1.16,.65-2.5,1.52-4.04s1.88-2.83,3.01-3.88c.37-.34,.7-.51,.98-.5,.28,.02,.82,.39,1.61,1.11,.07,.06,.11,.13,.11,.2,0,.12-.08,.19-.25,.19-.06,0-.12-.01-.18-.04-.55-.23-1-.23-1.34,.02-.73,.54-1.55,1.49-2.44,2.85-1.03,1.56-1.65,2.97-1.86,4.22,0,.05-.01,.11-.01,.15,0,.2,.08,.29,.23,.29,.27,0,.58-.18,.95-.55,.88-.85,1.81-1.92,2.81-3.21,1.02-1.34,1.68-2.34,1.97-3.02,.21-.5,.35-.85,.41-1.05,.1-.35,.21-.53,.33-.53s.39,.16,.82,.48c.18,.13,.28,.25,.29,.36,.02,.09-.02,.26-.11,.49Z"/><path class="b" d="M142.04,8.37c-.19,1.05-.68,2.81-1.46,5.26,.23-.2,.54-.57,.94-1.11,.05-.07,.11-.11,.16-.11,.12,0,.14,.11,.05,.33-.04,.09-.37,.62-.98,1.61-.47,.75-.81,1.41-1.03,1.99-.07,.18-.2,.27-.39,.27s-.44-.09-.76-.27c-.2-.11-.3-.19-.3-.25,0-.05,.04-.15,.13-.3,.42-.74,.89-1.98,1.41-3.73,.49-1.69,.77-2.94,.83-3.76,.02-.35-.01-.53-.11-.53-.07,0-.2,.09-.38,.26l-.73,.68c-.26,.23-.39,.25-.39,.04,0-.06,.04-.14,.11-.23,.37-.52,.76-1,1.17-1.46,.12-.13,.25-.2,.36-.2,.12,0,.31,.09,.55,.26,.36,.09,.56,.15,.6,.18,.18,.11,.27,.31,.27,.61,0,.14-.02,.3-.05,.48Zm1.65-5.13c.12,.09,.19,.2,.19,.32,0,.23-.34,.58-1.01,1.05-.45,.3-.88,.41-1.29,.33-.23-.05-.44-.13-.61-.26-.05-.05-.1-.1-.12-.15s-.03-.09-.02-.12c.02-.03,.07-.04,.14-.02,.72-.62,1.19-1.07,1.42-1.35,.18-.2,.31-.3,.39-.3,.14,0,.45,.17,.91,.5Z"/><path class="b" d="M149.93,1.38c.22,.12,.33,.25,.33,.4,0,.1-.07,.15-.22,.15-.03,0-.08,0-.15-.02s-.12-.02-.15-.02c-.3,0-.66,.32-1.08,.97-.38,.58-.89,1.84-1.56,3.77-.06,.17-.09,.27-.07,.3,.02,.05,.12,.09,.3,.09,.46,.04,1.08,.02,1.85-.05,.27-.02,.4,.09,.4,.34,0,.17-.1,.28-.3,.32-.16,.02-1.03,.09-2.59,.21-.94,2.74-1.51,5.06-1.71,6.96,0,.1-.01,.19-.01,.27,0,.27,.07,.4,.2,.4,.21,0,.85-.51,1.91-1.54,.12-.12,.25-.19,.36-.19,.1,0,.16,.04,.19,.13,.02,.09-.01,.2-.11,.33-.63,.84-1.25,1.55-1.86,2.13-.26,.24-.47,.36-.64,.36s-.44-.14-.8-.41c-.45-.12-.67-.35-.67-.7,0-.05,0-.12,.02-.19,.29-2.02,.86-4.5,1.7-7.44-.41-.05-.79-.11-1.12-.16-.15-.02-.22-.12-.22-.28,0-.18,.08-.29,.23-.33s.45-.12,.87-.26c.26-.09,.51-.2,.75-.35,.84-2.59,1.49-4.26,1.97-5.03,.27-.44,.57-.66,.88-.66s.73,.16,1.3,.47Z"/><path class="b" d="M152.59,13.68c.02,.94-.5,1.58-1.56,1.92-.13,.33-.26,.55-.38,.68-.18,.19-.45,.3-.8,.33-.23,.02-.47,0-.73-.04-.46-.07-1.03-.16-1.7-.26-.19-.03-.3-.14-.34-.34,.03-.21,.25-.34,.66-.38,.55-.04,1.38-.14,2.46-.29,.41-.09,.7-.32,.87-.69,.1-.19,.15-.42,.15-.69,0-.49-.25-1.36-.74-2.6-.48-1.21-.71-2.02-.68-2.43,.06-.98,.96-1.66,2.71-2.04,.17-.04,.26,.02,.26,.19,0,.09-.06,.17-.19,.22-.84,.37-1.27,.82-1.27,1.36,0,.21,.04,.47,.12,.79s.31,1.08,.7,2.28c.29,.87,.44,1.53,.45,1.98Zm1.88-6.73c0,.35-.09,.91-.28,1.69-.07,.27-.15,.44-.23,.52-.04,.04-.17,.1-.4,.18-.29,.11-.47,.16-.54,.16-.12,0-.18-.08-.18-.23,0-.09,.02-.2,.05-.34,.19-.77,.26-1.31,.22-1.61s.04-.49,.26-.57c.38-.2,.63-.29,.74-.29,.24,0,.36,.17,.36,.5Z"/></g></svg>