<svg id="Logo" xmlns="http://www.w3.org/2000/svg" viewBox="0 0 162.43 73.46"><defs><style>.cls-1{fill:#ffbde3;}.cls-2{fill:#353535;}.cls-3{fill:#ffb3df;}</style></defs><path class="cls-1" d="M54.2,10c-.53.18-.17.49-.21.59C54.8,10.13,54.13,9.9,54.2,10Z"/><path class="cls-1" d="M62.46,5.71l-.11.22c.39-.28.77-.58,1.17-.85C63.16,5.27,62.81,5.51,62.46,5.71Z"/><path class="cls-1" d="M70.85,3.41a3,3,0,0,0-2.09.21,13.51,13.51,0,0,1-2.51.81L66,4.34l-.52.75c.9-.31,1.9-.72,2.86-1.08A11,11,0,0,1,70.85,3.41Z"/><path class="cls-1" d="M75.66,4c-.32-.23.94-.39-1.06.08l.2,0Z"/><path class="cls-1" d="M74.8,4.14c-.89.16.62.14,0,0Z"/><path class="cls-1" d="M78.89,3.33l-1.14.44c.27.12,1.32,0,1,.17.59-.17.82-.27.81-.35S79.25,3.41,78.89,3.33Z"/><path class="cls-1" d="M80,2.68l-.6.17C79.46,2.91,79.63,2.91,80,2.68Z"/><path class="cls-1" d="M78.08,3.27c.42-.14.84-.29,1.27-.42-.19-.1-.24-.32-.59.16C78.84,2.79,78.61,3,78.08,3.27Z"/><path class="cls-1" d="M77.33,3.27c-.68,0-1.56,0-.41-.44C74.67,3.29,75.09,3.73,77.33,3.27Z"/><path class="cls-1" d="M71.13,2.59h-.94l-.72.4C69.83,2.78,71.23,2.79,71.13,2.59Z"/><path class="cls-1" d="M86.3,3.06c.07-.15-.42-.38-.52-.58l-.87.21C85.37,2.78,86.23,2.84,86.3,3.06Z"/><path class="cls-1" d="M85.78,2.48l1.31-.31C85.91,2.19,85.7,2.32,85.78,2.48Z"/><path class="cls-1" d="M80.07,1.88c-.71.23-1.4.52-2.09.82l1.25-.47,1.26-.4Z"/><polygon class="cls-1" points="91.3 2.98 90.56 3.32 91.89 2.81 91.3 2.98"/><path class="cls-1" d="M94.63,3c-.56.28.73.51.14.67a11.06,11.06,0,0,0,2.38-.35A7.07,7.07,0,0,1,94.63,3Z"/><path class="cls-1" d="M98.34,3.07a9.65,9.65,0,0,0-1.19.24A5.13,5.13,0,0,0,98.34,3.07Z"/><path class="cls-1" d="M89.34,2.16a1.76,1.76,0,0,0,1,.43l-.52-.44Z"/><path class="cls-1" d="M89.84,2.14h0L91,2.2Z"/><path class="cls-1" d="M89.21,2.17h.13S89.26,2.11,89.21,2.17Z"/><path class="cls-1" d="M83.59,1.92c.75-.34,2.38-.63.77-.94C83.82,1.33,84.73,1.45,83.59,1.92Z"/><path class="cls-1" d="M88.55,1.66l-1.41,0c0,.12.29.27-.09.4Z"/><polygon class="cls-1" points="89.24 1.5 88.55 1.66 89.08 1.67 89.24 1.5"/><path class="cls-1" d="M96,2.48a8.36,8.36,0,0,1,2-.07c-.8-.14-1.63-.26-2.41-.32C95.48,2.22,95.12,2.43,96,2.48Z"/><path class="cls-1" d="M93,2.25l.14,0C93.06,2.19,93,2.18,93,2.25Z"/><polygon class="cls-1" points="105.34 3.29 105.23 3.2 105.19 3.27 105.34 3.29"/><path class="cls-1" d="M95.47,2a2.18,2.18,0,0,0-1.32.11,9.88,9.88,0,0,1,1.45,0C95.65,2,95.66,2,95.47,2Z"/><path class="cls-1" d="M100.4,3a9.5,9.5,0,0,0-1-.32C99.68,2.88,100.28,3.14,100.4,3Z"/><path class="cls-1" d="M93.34,2.35l-.09,0C93.44,2.47,93.42,2.42,93.34,2.35Z"/><path class="cls-1" d="M93.34,2.35a4.3,4.3,0,0,0,.81-.24c-.37,0-.72.07-1,.12A1,1,0,0,1,93.34,2.35Z"/><path class="cls-1" d="M108.05,1c-.19.38-1.83.36-3.16-.21-1.42.1-.7,1.52.34,2.4.07-.15.1-.37,1.51-.31-.43-.36-3-1-1.76-1.17,1.89,0,1.49.4,2.34.76-.67-.64,2.47-.24,2.22-1l-1.67-.08C107.86,1.26,108.48,1.2,108.05,1Z"/><path class="cls-1" d="M102.62,2.79l-.58,0a7.53,7.53,0,0,1,1.88.81c1-.06,1.19-.18,1.27-.3l-2.78-.45Z"/><path class="cls-1" d="M99.49,2.47c.49-.41,1.89-.44,1.1-1-1.7-.1-1.23.26-2.25.37,2.73.11-.8.18,1.14.58a14.21,14.21,0,0,1-1.47,0c.48.09.94.2,1.37.31l-.06,0h0c-.11-.06-.14-.1,0-.05h0a.49.49,0,0,1,.14-.15c.77.15.11.12-.14.15l0,.06h0c.91,0,1.82,0,2.72.07A12.34,12.34,0,0,0,99.49,2.47Z"/><path class="cls-1" d="M85.78,0a.12.12,0,0,1,.09.1C86.05,0,86.11,0,85.78,0Z"/><path class="cls-1" d="M86.93.22a1.89,1.89,0,0,1-1,.22c-.58-.1,0-.2,0-.34-.39.13-1.36.36-.12.52L86,.55a5.48,5.48,0,0,1,2.36.66A3.47,3.47,0,0,0,86.93.22Z"/><path class="cls-1" d="M93.36,1c.77,0,1.54-.13,2.3-.14C95.28.72,94.9.6,94.51.46l0,.23C93.26.57,93.53.85,93.36,1Z"/><path class="cls-1" d="M105.56,3.54l-.37.41c.46-.17.92-.28,1.39-.41C106.24,3.54,105.9,3.52,105.56,3.54Z"/><polygon class="cls-1" points="108.44 4.05 108.26 4.42 109.06 4.33 108.44 4.05"/><path class="cls-1" d="M68.43,71.74l-.69.08A3.83,3.83,0,0,0,68.43,71.74Z"/><path class="cls-1" d="M73.4,72l.12-.19C73.29,71.88,73.19,72,73.4,72Z"/><path class="cls-1" d="M156.14,45.81c-.66.61-1.61,1-1.17,1.19h.49A5.55,5.55,0,0,1,156.14,45.81Z"/><path class="cls-1" d="M113.75,67.37l.31.08.59-.52Z"/><path class="cls-1" d="M113.35,69.25,112,69.19A8.1,8.1,0,0,0,113.35,69.25Z"/><path class="cls-1" d="M41.36,69.9l-.86.33C41.75,70.4,41.23,70.1,41.36,69.9Z"/><path class="cls-1" d="M136.31,14.69A13.93,13.93,0,0,0,137.92,16C137.22,15.26,136.72,14.52,136.31,14.69Z"/><path class="cls-1" d="M70.57,67.24c-.41.05-.59.13-.59.23C70.41,67.42,70.66,67.35,70.57,67.24Z"/><path class="cls-1" d="M139.89,17.35c-.09-.12-.2-.22-.3-.33a14.13,14.13,0,0,1-1.67-1A4.17,4.17,0,0,0,139.89,17.35Z"/><path class="cls-1" d="M35.57,12l.23,0C35.81,11.9,35.71,11.93,35.57,12Z"/><path class="cls-1" d="M64.4,11.73c-.27,0-.72.06-1.15.09A6,6,0,0,0,64.4,11.73Z"/><path class="cls-1" d="M119.74,7.31c-.6-.17-.11,0,0,0Z"/><path class="cls-1" d="M117.38,4.73c.14,0,.26,0,.3-.13A.42.42,0,0,1,117.38,4.73Z"/><path class="cls-1" d="M146.47,19.05l0,0C146.42,18.9,146.43,18.93,146.47,19.05Z"/><path class="cls-1" d="M118.92,6.83a6.59,6.59,0,0,0,.71.37A7.27,7.27,0,0,0,118.92,6.83Z"/><path class="cls-1" d="M119,7.06l-.5-.21C118.37,6.9,118.42,7,119,7.06Z"/><path class="cls-1" d="M120.57,7.56a9.24,9.24,0,0,1-.94-.36c.1.07.14.11.11.11Z"/><path class="cls-1" d="M1.53,49.13a.76.76,0,0,1,0-.15C1.16,48.35,1.26,48.65,1.53,49.13Z"/><path class="cls-1" d="M147.17,59.49l.06-.05-.09,0Z"/><path class="cls-1" d="M145.14,60.79a3.37,3.37,0,0,1,2-1.32l-1.25-.79C145.66,59.37,145.41,60.09,145.14,60.79Z"/><path class="cls-1" d="M56.56,71.1l1.59.52c-2,.49-3.4.15-1.93.82.34-1.32,6.32.34,6.63-1l1,.35c-.3,0-.35,0-.66,0,2,.77,1.6-.86,4.27-.55.92.15,1.56.37.92.5l2.09-.23c.61,0,.45.28-.15.23,1.06,0,2.12,0,3.18,0l0,0a16.61,16.61,0,0,1,2-.63c.8.22-.41.13-.21.31l1.77-.28c.71.37-.76.67-2,.58,1.61,1.4,1.46-.28,5,.53l-1.66.16c1.06.78,2.37.51,4.26,1-.46-.26-3.78-1.24-1.86-1.57a4.69,4.69,0,0,0,2.28-.11c0,.48,1,.35,2.28.3l-.08.64c1.36-.2,1.25-.53,2-.83a2.45,2.45,0,0,1,2.22.92c2.44,0-1.71-.73,1.17-1a17,17,0,0,0,5.84-.7c1.42.13-.22.41.29.56l1.22-.6c.31,0,.22.16.18.24,1-.27,0-.64,1.68-.94.38-.74,3.49.7,5.46-.3.52.12-.2.42,0,.65A26,26,0,0,0,110,69.06c.67.06,1.34.11,2,.13-1.5-.24.25-1.1,1.75-1.82-.54-.15-1-.28-1.3-.33l2.47-.75c.32,0,.1.31-.27.64l.44-.22c1,.08.55.52,0,1l-1-.24c-.56.49-1.08,1-.89,1.36a3,3,0,0,1,.81-.31c-.15.13-.24.24-.15.29s.34-.13.73-.36l.7.61.1-.31c1.14,0,2.28-.1,3.42-.18,1.12-.6,2.15-1.25,3.34-1.9a21.82,21.82,0,0,1,4.37-2c-.8.73,0,.88.11,1.49-1.18-.4-2.83,1-4.81,1.3,1-.15.87.17.63.34l3.34-1.42c0,.51.83.19,1.79.17-.93-.76,2.39-1.36,3.7-2.06.18.3-.06.73-1.79,1.13,2.09.18,2.11-1.79,4.11-1.76-.41.14-.64.18-.76.38.87-.59,3.28-1.15,2.83-.69l-.41.14c2.79-.7,8.22-3,8.29-3.93a3.7,3.7,0,0,1-.05,1.31,52.48,52.48,0,0,0,3.44-4.72c-.08.86,2.32,1.6.32,3.07A7.21,7.21,0,0,0,149.92,58c-.47.17-1.55-.35-1-.71,1.94-.2,1.29-.21,3.54-.87-.69.28-.66-1.11.25-1.74,0,.24.76.85.48,1.19.29-.42.55-.87.8-1.32s.5-.89.71-1.35c-.38.62.53.8,1.25.58-.35.09,1.83-1.81,2.21-2.57l-1,.82a4.55,4.55,0,0,0,1.36-3.08,8.64,8.64,0,0,1,.12-1.4,8.15,8.15,0,0,1,.47-1.8,1.13,1.13,0,0,0,.64.67c.34.11.74,0,1.06-.87-.14-.46-.65-1.49-1.17-2.59A31.09,31.09,0,0,1,158,39.47l.24-.52a19.21,19.21,0,0,0-.81-1.79,10.88,10.88,0,0,1,2.34,2.66,10.27,10.27,0,0,1,1.54,4,5.41,5.41,0,0,1,.42-.89,3.7,3.7,0,0,0,.13-1.44c.32-.72.49,1.12.4,1.74a17.41,17.41,0,0,0,0-4.78c-.32.15-.62-.7-1-1.49s-.76-1.54-1-1.38a19.77,19.77,0,0,1,1.66,4.6c-.33.13-.84-.56-1.4-1.56A22.68,22.68,0,0,1,158.91,35c0-.8,1.32.11,1.51,0a12.2,12.2,0,0,1-1.47-2.8c.29.33.58.67.86,1a4.74,4.74,0,0,0-1.21-1.91,4.75,4.75,0,0,1-1.17-2.19c-.3-.6-.37-2.21-.77-2.09,0,1.39-1.94,2.78-2.79,2.52,0-.23-1.31-3.15-1.51-4-.21-1.24,2.13.4,2-.65-.17.08-.73-.27-.94-.42-.34-.64.63-.14-.44-1.27-.65.23-2.06-2.35-.91-.17-1.15-1-1-1.28-2.23-2.5.08.69-2.15,0-3.37-.82.18-.07.08-.46,0-.64a55,55,0,0,0-5.67-4.81c-.11-.29-1.14-1.2-.5-1.13a4.64,4.64,0,0,1-1.59-.59c-1.11-1.39,1.7,1,1-.31-.31.27-2.19-.78-3.42-1.13,0,.69,2.41,1.53,3.58,2-.48.73-2.7.22-5.43-.78-2.1-.92-.61-1-1-1.05A7.08,7.08,0,0,0,129.69,10a5.29,5.29,0,0,1-3.12-1.19c-1.09-1,.37-1,.23-1.49,1.8.6,2.48,1.55,3.64,2.07l-1.31-.91a6.6,6.6,0,0,1,2.37,1,20.92,20.92,0,0,0-4-2.21c-1.94-.83-4.15-1.72-5.65-2.53-.63,0-1.67-.17-1.28.19l1,.26c.77.71-2.09-.06-.89.55a14.92,14.92,0,0,1-4.9-1L115.63,4c0,.18,1.16.68,1.73.7-.84-.05-2.71-1.61-3.8-1.09l1.24.77c-.73,0-1.55,0-2.39,0a11.19,11.19,0,0,1-2.54-.4c.64.76.42,0,1.45,1-.82-1.13,4.27,1.17,2.85-.17,1,1.12,2,.87,3.39,2.09,0-.21-.44-.55.91,0a1.8,1.8,0,0,1,.36-.06l.09,0-.07,0c.07,0,.07,0,0,0a2.14,2.14,0,0,1-.61-.53c.83-.2,3.06.49,3.87.59.77.41-.42.08-.06.46l1.22.1c0,.46,1.86,1.54-.12,1l1.68.69a12.19,12.19,0,0,0,3.1,1.56c.73.45,2.18.48,1.35.47.9.33,1.81.64,2.68,1l0,.11c1.22.71,2.59,1.24,3.94,1.91a12.35,12.35,0,0,1,3.75,2.8,12,12,0,0,1,2.9,2v.5c1,.63,2.51,2.58,3.15,2.63.12.83,1.12,1.84,2.2,2.91a20.87,20.87,0,0,1,2.78,3.09l.45-.25c.84,1.14,1.73,2.18,2.8,3.6l.34-.32c1.12,1.15,1.65,3.66,2.39,5.83-.21-.1-.35-.67-.41-1.1a15.26,15.26,0,0,0,.95,4.09,4.77,4.77,0,0,1,0,3.77,2,2,0,0,1-.37,1.35.78.78,0,0,0,0-.14,1.94,1.94,0,0,0-.07.22c-.17.21-.36.42-.54.65a3.38,3.38,0,0,0,.49-.53c-.18.42-.35,1.07-.61,1.72h-.56l-.06.14c-.51.45-.11.57.41.47a4.45,4.45,0,0,0-.29.93c-.46,0-.72.4-1,.82a1.4,1.4,0,0,1-1.17.83,5.1,5.1,0,0,1-1.25,1.69c-.62.7-1.27,1.37-1.19,1.84-.09-.07-.3,0,0-.23a7.74,7.74,0,0,0-2.05,1.4l-.63-.34c-.38.56-.81,1.08-1.23,1.63-1.2.2-1.71.2-.92-.72-2.12,1.85-1.85,1.21-3.74,2.79l0-.41c-.79.32-1.87,1.3-2.47,1.18-2,.09-8.92,3-13.83,3.58,1.21.91-2.33,0-2.3,1-.34-.2-1-.19-.32-.61-2.35.88-3.73.38-5.25,1.48-.34-.22.44-.5.16-.61-.18.09-.73.39-1,.28s.31-.3.67-.5c-2.46.56-2.57,1.41-2.62,2.23a3.15,3.15,0,0,0-2.8.66c-.49-.18-1.27-.33.28-.68l-3,.35c-1.25.15-2.4.37-2.4.69a3.27,3.27,0,0,0-1.47.22c-2,.21-2.18.13-4.13.4l.55,0c-.7.83-1.61.34-3.19.56l0-.08c-3.68-.31-1.56.37-5.18,0l.22.47C94,69.5,91,68,89,68.45l.76.25c-1.13.42-3.23-1.33-4.36-1.43-.25-.09.39-.15.73-.23-3-.56-.37.64-2.6.82-.41-.34.52-.86-1-.92-.74-.29-4.35,1.1-6.39.39.44.27.89.54-.15.71-1.6,0-4.26-1.08-5.73-.35-.2-.08-.27-.15-.28-.22-1.22.15-4,.18-4.72.57-.51-.86-2.41-.78-4.17-.68s-3.38.2-3.3-.56l-3.74-.22.11-.15a7.77,7.77,0,0,0-4.12.26c-.54-.16-.12-.27-.07-.34a14.89,14.89,0,0,0-6.79-.23l-.24-.53c-.83.2-4.89-1.41-8.33-1.41,0-.05.13-.13.41-.16a22.72,22.72,0,0,1-6-1.36c-1.9-.59-3.52-1-4.41-.29L22,62.18c3.13,1-.67.63.56,1.26-1.3-.22-3.07-1.43-1.53-1.07l.22.15c.4-.37-.55-.72-1.55-1.09s-2-.75-1.9-1A23.72,23.72,0,0,1,10,55.89a18.5,18.5,0,0,1-4.8-6.73c-.14.28-.3.58-.42.87a15.1,15.1,0,0,1-.66-1.81c0-.54.33-.78.73.47.12-.76-.92-2-1.08-2.07,0-1.33.23-1.07.45-.64s.52,1.07.45.7a9.07,9.07,0,0,1-.21-1l-.06.24c-.2-.4-.36-.62-.49-.94a3.16,3.16,0,0,1-.12-1.55c.26-1,.51-.45.6-.83,0,0,.1-.12.13-.59a15,15,0,0,1,.75-2.2c-.3.22-.59.46-.87.7.06-1.11.9-2.13-.17-1.33A8.06,8.06,0,0,0,5.63,37.4c.56-.8,1.2-1.75,1.89-2.66A19.68,19.68,0,0,1,10.92,31a13.44,13.44,0,0,1,3.63-3.73c-.46.22-1.11-.09.28-1.13.17.72.89.35,1.77-.2a6.29,6.29,0,0,1,2.8-1.21c-.69.08.3-.63,1.2-1.3s1.76-1.29.7-1.17c1.28-.65.32.38,1.42.11,2.69-2.17,6.76-3.19,10.61-4.8,0-.19-.76-.19,0-.76l2.38.09c.76-.33.42-1.21,2-1.08-.25-.08-.62-.2-.1-.41,4.08-.79,8.16-1.88,12.36-2.63a41.09,41.09,0,0,1,12.76-.55c-1.16-.29-.4-.36.47-.41-.57-.06,0-.44-.13-.67,1.19.16,2.39.34,3.57.53.63-.68,3.81-.11,4.18-.73l-1.13.12c1.5-.76-2.12-1.65-1.93-2.6-1.67.88-4.55-1.13-7.29.26-.63-.15.51-.34.16-.54a5.1,5.1,0,0,1-3.13.55l.17-.12c-4.45.54-6.41.34-11.45,1l.45.39a6.76,6.76,0,0,1-1.85,0c-1.09.94,3-.55,2,.45-.79-.34-2.67,0-4.49.42s-3.56.85-4.18.45c-1.62.47.62.39-1,.86L36.72,12l-.29.48c-1.07.28-1.71.1-1.83-.12a8.89,8.89,0,0,0,1-.42c-1.48.1-3.81,1.42-4.3,1.51l1.59-.39c-2.12.9-4.51,1.83-6.81,2.93a31.87,31.87,0,0,0-6.25,3.76l.4,0a13.58,13.58,0,0,1-2.59,1.7,12.05,12.05,0,0,0-2.8,1.83l.08-.13a11.17,11.17,0,0,1-2,1.94c.56-.8-1.7.74-.92-.27a9.61,9.61,0,0,0-1.69,2.05,10.68,10.68,0,0,1-.7,1.67l-.66.12a6.59,6.59,0,0,1-1.47,2.41c.79-1.35-1.23.51-.38-1.05a9.53,9.53,0,0,0-3,3.64,5.37,5.37,0,0,1-1.91,2.55c0,1.08.55.33,1.06-.5s1.08-1.74.88-1.25c.74-.52-.2,1.65-.8,2.71a8.18,8.18,0,0,1-1.4,1.54A5.91,5.91,0,0,0,.37,42.06c.07-.34,0-.38.06-.71C-.09,42.6.4,43.9.06,45.5a2.9,2.9,0,0,1,.46,1.38c.09.42.2.77.61.8a15.45,15.45,0,0,1-.53-3,10.33,10.33,0,0,0,.85,2.61,21.63,21.63,0,0,1,1.1,3.24,4.67,4.67,0,0,1-1-1.35c0,.88.67,1.45.84,2.32-.41.07-.88-.77-1.27-1.87S.41,47.14,0,46.19a4.41,4.41,0,0,0,.41,2.05c.25.64.38,1.06-.16.71a4.3,4.3,0,0,1,1.28,2.24,5.37,5.37,0,0,0,1.75,2.65L2.84,54a15.74,15.74,0,0,1,1.27,1.29c-.42-.18-.81-.4-1.22-.62a9,9,0,0,1,1.72,2.17,6.46,6.46,0,0,0,1.79,2C5,57.56,5,57.26,5.15,57.19s.57,0,.17-.7c1.77,1.42,2.1,2,2.43,2.74s.74,1.61,3,2.82c-.65-.28-2.06-1.62-1-1.22a22.52,22.52,0,0,1,2.2,1.88c3.05,1.38-.25-.66,1.15-.3.77,1,1.57.47,2.94.81l-.17.45c1.68.8,2,.61,2.26.45s.47-.34,2,.31l-1.51.23,1.68.33-.49.43a12.51,12.51,0,0,1,4.13.93c-.32-.42.43-.79,2-.46,1,.52-.69.33,1.51.73a1.84,1.84,0,0,1-2-.21c-.13.14-.55.19-.69.32a13,13,0,0,0,3.64.86,3.88,3.88,0,0,1-.84-.29c1.11,0,2.21,0,3.31,0,.47.27,0,.34-.37.41.65.06,1.14-.06,2.09.06-.31.34-.32.76-1.71.69,1.05,0,2.09.08,3.13.11.17.2,1.49.72,1.07.8,1.67.5,4.27-.12,6.47.47a2.26,2.26,0,0,1,.86-.1c2.09.35,3.91,1,6.47.77l1.35.83c2,0-1.83-1.06,1.45-1,2.33,0,.81.67,1.6.94a9.42,9.42,0,0,1,5.31-.08A15,15,0,0,1,56.56,71.1Zm24.24.78c-.47.1-1.41.41-1.75.12C79.59,71.45,80,71.72,80.8,71.88Zm36.62-4.21a2.19,2.19,0,0,1-1.49.18A5.53,5.53,0,0,1,117.42,67.67Zm8.81-58.28h0C127.12,10,126.82,9.77,126.23,9.39Zm-1.88-1c-.22,0-.23.05-.17.15a2.3,2.3,0,0,1,1.11.34C125.2,8.73,125,8.54,124.35,8.41ZM4.26,42.35l-.19.34C4.09,41.85,4.17,42.1,4.26,42.35Z"/><path class="cls-1" d="M113.41,69a.48.48,0,0,1-.24-.22C113,68.92,113,69,113.41,69Z"/><path class="cls-1" d="M41.51,69.84l-.07,0a.15.15,0,0,0-.08.08Z"/><path class="cls-1" d="M154,24a2.78,2.78,0,0,1,.36.86C154.44,24.82,154.39,24.59,154,24Z"/><path class="cls-1" d="M113.55,5.66l1.33.22a3.29,3.29,0,0,1-1.13-.46C113.75,5.54,114,5.76,113.55,5.66Z"/><path class="cls-1" d="M102.53.46c-.21,0-.43-.05-.63,0l0,.23C102.78.77,103.4.68,102.53.46Z"/><path class="cls-1" d="M112.74,3.79c0-.41-.87-.53-1.82-.66l.17,0C110.69,3.65,111.72,3.7,112.74,3.79Z"/><path class="cls-1" d="M110.7,3.1a8.34,8.34,0,0,1-.87-.16C109.67,3.14,110.17,3.05,110.7,3.1Z"/><path class="cls-1" d="M121.77,7.67c-.38-.26-.44.38-.61.13C120.51,8.1,124.14,8.32,121.77,7.67Z"/><polygon class="cls-1" points="112.3 2.29 112.52 2.87 113.14 2.61 112.3 2.29"/><path class="cls-1" d="M119.54,4.77l-1.42-.62c0,.09-.21.07-.45,0C118.57,4.5,119.53,4.92,119.54,4.77Z"/><path class="cls-1" d="M117.67,4.18a3.79,3.79,0,0,0-1.2-.29C116.73,3.94,117.28,4.12,117.67,4.18Z"/><polygon class="cls-1" points="114.39 2.69 114.81 2.9 115.86 3.22 114.39 2.69"/><path class="cls-1" d="M134.64,11.54l1.54.69c.24-.06-.11-.38-.7-.62C135.07,11.52,134.49,11.27,134.64,11.54Z"/><path class="cls-1" d="M130.73,7.94c.38.29.35.41.52.67l.32-.54Z"/><path class="cls-1" d="M135.22,10.13c.23-.07,2.42.78.5-.25C135.48,10,133.91,9.24,135.22,10.13Z"/><polygon class="cls-1" points="154.24 27.18 153.98 26.83 153.19 27.48 154.24 27.18"/><path class="cls-1" d="M160.07,49.53c.68-1,.6-1.18.51-1.35s-.19-.29.36-1.22c0-.58-.9,1.49-.87.89C159.69,49.19,159.17,49.76,160.07,49.53Z"/><path class="cls-1" d="M160.07,47.85a6.46,6.46,0,0,0,.13-.71A5.29,5.29,0,0,0,160.07,47.85Z"/><polygon class="cls-1" points="69.07 12.16 70.34 12.36 69.52 12.03 69.07 12.16"/><path class="cls-1" d="M71.51,11.39l.3.65.77-.58A2.11,2.11,0,0,1,71.51,11.39Z"/><path class="cls-1" d="M84.43,73.18l.1-.16c-.21-.16-.51-.17-1.13-.19Z"/><polygon class="cls-1" points="66.76 72.3 67.07 72.33 66.53 71.72 66.76 72.3"/><path class="cls-1" d="M52,72c.6.08,1.32,0,1.92.09C52.55,72.06,51.85,71.24,52,72Z"/><path class="cls-2" d="M40.66,24.21A58.34,58.34,0,0,1,36.72,38q-3.64,8.94-6.93,8.9c-1.26,0-2.73-.83-4.42-2.41a.69.69,0,0,1-.21-.52c0-.39.16-.58.47-.58a.62.62,0,0,1,.32.1,6.88,6.88,0,0,0,2.89,1.15q2.51.15,5.9-8.4a50.87,50.87,0,0,0,3.73-15.08,1.68,1.68,0,0,0-.61-1.68,3.63,3.63,0,0,0-2-.3c-1,0-2.07.77-3.36,2.15a13.56,13.56,0,0,0-3.06,5.3,2.69,2.69,0,0,0-.13.82,3.6,3.6,0,0,0,1.19,2.09.57.57,0,0,1,.21.37c0,.24-.19.36-.56.36a.86.86,0,0,1-.38-.08C27.89,29,27,27.91,27,27a6.27,6.27,0,0,1,.75-2.48,16.87,16.87,0,0,1,3.06-4.29,10.52,10.52,0,0,1,3.36-2.58,1.75,1.75,0,0,1,.62-.11,7.14,7.14,0,0,1,2.13.52.54.54,0,0,1,.39-.13,6.72,6.72,0,0,1,2.82,1.48c.5.36.74,1.23.74,2.61A17,17,0,0,1,40.66,24.21Z"/><path class="cls-2" d="M53.31,30.63a18.67,18.67,0,0,1-.8,4.41,16.21,16.21,0,0,1-3.43,6.72A3.55,3.55,0,0,1,46.46,43,5.42,5.42,0,0,1,45,42.78a4.51,4.51,0,0,1-2.85-1.1,3.36,3.36,0,0,1-1.12-2.78,19.64,19.64,0,0,1,1.36-5.52,17.75,17.75,0,0,1,3-5.57c.49-.54.88-.82,1.2-.82s1.1.44,2,1.31c.26-.13.8-.36,1.6-.69a3.24,3.24,0,0,1,.94-.21c.48,0,1,.46,1.62,1.37A2.94,2.94,0,0,1,53.31,30.63Zm-2.14.54c.08-.83.13-1.36.13-1.58,0-.53-.17-.79-.49-.79a2.15,2.15,0,0,0-.48.08l-2.9,1.17a3,3,0,0,1-.58.21c-.1,0-.2-.12-.29-.36a13.47,13.47,0,0,0-2,3.83,21,21,0,0,0-1,3.51,9.68,9.68,0,0,0-.2,1.9c0,1.92.59,2.85,1.77,2.8a2.88,2.88,0,0,0,1.53-.56,9.52,9.52,0,0,0,2.93-4.25A20.07,20.07,0,0,0,51.17,31.17Z"/><path class="cls-2" d="M79.32,36.79c0,2.25-1.15,4.07-3.44,5.43a2.9,2.9,0,0,1-2.56,1.54,11.29,11.29,0,0,1-6.19-2.49,13.72,13.72,0,0,1-4-4A7.28,7.28,0,0,1,62,35a1.93,1.93,0,0,1,.84-1.3A2.24,2.24,0,0,1,64.08,33c.29,0,.43.18.43.56a2.42,2.42,0,0,1-.09.59,11.23,11.23,0,0,0,4.18,5,10.11,10.11,0,0,0,5.79,2.29c1.53,0,2.29-1.06,2.29-3.13q0-1.73-2.67-6.86t-2.68-7.37a4.3,4.3,0,0,1,.82-2.59,11.69,11.69,0,0,1,2.43-2.26,1.05,1.05,0,0,1,.63-.25c.34,0,.5.15.5.43a.89.89,0,0,1-.33.62,4.41,4.41,0,0,0-1.44,3.32q0,2.19,2.69,7.21T79.32,36.79ZM84.9,19.66a16.15,16.15,0,0,1-2,4.44c-.37.56-.73.84-1.06.84a4,4,0,0,1-1.7-.8c-.25-.17-.38-.33-.38-.51s.22-.45.66-.56.69-.66,1.1-1.7a7,7,0,0,0,.58-2.31c0-.59-.23-.88-.69-.88a3.28,3.28,0,0,0-.62.08,21.76,21.76,0,0,0-3.14,1,1.39,1.39,0,0,1-.5.1c-.37,0-.56-.13-.56-.38s.19-.44.58-.63a34.09,34.09,0,0,1,4.12-1.75,3,3,0,0,1,.94-.25c.28,0,.66.4,1.12,1.2a8.08,8.08,0,0,1,1.29.46.82.82,0,0,1,.41.75A3.49,3.49,0,0,1,84.9,19.66Z"/><path class="cls-2" d="M105.08,36.49q-1.22,1.82-3.62,6.39a2.06,2.06,0,0,1-.28.43,1.3,1.3,0,0,1-.79-.1c-.86-.26-1.29-.51-1.29-.74a1.73,1.73,0,0,1,.17-.6,51.84,51.84,0,0,0,2.4-7,21.76,21.76,0,0,0,1-5.69c0-.43-.15-.65-.46-.65a1.26,1.26,0,0,0-.75.35,24.72,24.72,0,0,0-4.11,5A33.55,33.55,0,0,0,93,42.3c-.09.3-.16.47-.23.5s-.25,0-.54-.09a5,5,0,0,1-1.21-.63.55.55,0,0,1-.28-.43,7,7,0,0,1,.28-.73A31.9,31.9,0,0,0,93.5,29.06q0-.57-.33-.57a1.08,1.08,0,0,0-.62.31,23.34,23.34,0,0,0-4.44,5.79,37.85,37.85,0,0,0-3.51,7.35c-.2.59-.41.88-.62.88A3.86,3.86,0,0,1,82.45,42c-.2-.11-.3-.23-.3-.35s.14-.35.41-.64a33.24,33.24,0,0,0,1.74-5.6,24.35,24.35,0,0,0,1-6.59c-.18.19-.5.5-1,.93l-1,1a.65.65,0,0,1-.43.24c-.18,0-.28-.13-.28-.37a.76.76,0,0,1,.21-.53,20,20,0,0,0,2.07-2.55c.25-.35.47-.53.65-.53s.41.2.81.6l.93.34a.69.69,0,0,1,.39.69,1.15,1.15,0,0,1,0,.31,40,40,0,0,1-1.43,6.72,32.54,32.54,0,0,1,6.14-8.43,1.16,1.16,0,0,1,.76-.36,2.64,2.64,0,0,1,1.2.51,3.3,3.3,0,0,1,1,.59,1.69,1.69,0,0,1,.28,1,24.13,24.13,0,0,1-.88,6.78,44.44,44.44,0,0,1,6.63-8.57,1.18,1.18,0,0,1,.82-.38,2.31,2.31,0,0,1,1.38.75,1.5,1.5,0,0,1,1.38,1.77A26.42,26.42,0,0,1,103,38a20.56,20.56,0,0,0,1.46-1.9.67.67,0,0,1,.56-.39c.18,0,.28.1.28.3A.88.88,0,0,1,105.08,36.49Z"/><path class="cls-2" d="M112.28,29.75A73.75,73.75,0,0,1,110,38.14a13,13,0,0,0,1.49-1.78.36.36,0,0,1,.26-.16c.2,0,.23.17.08.52-.06.13-.59,1-1.57,2.56a18.26,18.26,0,0,0-1.64,3.17.62.62,0,0,1-.62.43,2.8,2.8,0,0,1-1.21-.43c-.32-.18-.49-.31-.49-.39a1.41,1.41,0,0,1,.21-.49,30.69,30.69,0,0,0,2.24-5.94,32.92,32.92,0,0,0,1.32-6c0-.56,0-.84-.16-.84s-.31.14-.6.41L108.1,30.3c-.41.37-.61.39-.61.05a.67.67,0,0,1,.16-.37,26.84,26.84,0,0,1,1.87-2.33.8.8,0,0,1,.58-.32,1.75,1.75,0,0,1,.88.41,7.15,7.15,0,0,1,1,.28,1.05,1.05,0,0,1,.43,1A4.47,4.47,0,0,1,112.28,29.75Z"/><path class="cls-2" d="M124.85,18.63c.35.19.52.4.52.63s-.12.25-.36.25l-.23,0-.23,0c-.48,0-1,.52-1.72,1.55a32.87,32.87,0,0,0-2.48,6c-.1.27-.14.44-.11.49s.19.13.48.15a18.27,18.27,0,0,0,3-.08c.42,0,.64.14.64.54s-.17.44-.49.51-1.64.15-4.13.33A52.92,52.92,0,0,0,117,40c0,.16,0,.31,0,.43,0,.42.11.63.32.63s1.35-.81,3-2.44a.84.84,0,0,1,.58-.3.28.28,0,0,1,.3.21.62.62,0,0,1-.17.52,30,30,0,0,1-3,3.4,1.71,1.71,0,0,1-1,.57,2.53,2.53,0,0,1-1.26-.65c-.71-.19-1.07-.56-1.07-1.12a1.13,1.13,0,0,1,0-.3,90.78,90.78,0,0,1,2.71-11.85l-1.8-.26a.4.4,0,0,1-.35-.45.47.47,0,0,1,.37-.52c.25-.07.71-.2,1.38-.41a6.51,6.51,0,0,0,1.2-.56,44.87,44.87,0,0,1,3.13-8c.44-.7.91-1.05,1.4-1.05A4.9,4.9,0,0,1,124.85,18.63Z"/><path class="cls-2" d="M138.12,13.48a.52.52,0,0,1,.24.41c0,.22-.14.33-.43.33a.77.77,0,0,1-.39-.11,3.21,3.21,0,0,0-1.29-.43c-.76,0-1.6.76-2.54,2.28q-4.92,8-7.3,21a32,32,0,0,1,7-9.33,2.43,2.43,0,0,1,1.23-.75,4.16,4.16,0,0,1,.93.52,8.15,8.15,0,0,1,1.12.52,1.92,1.92,0,0,1,.49,1.5,5.14,5.14,0,0,1,0,.65,37.5,37.5,0,0,1-1.9,8.05c.38-.53,1-1.29,1.83-2.3.2-.21.36-.32.5-.32s.21.08.21.25a1.21,1.21,0,0,1-.25.63Q136.42,38,134.63,41c-.1.2-.34.72-.73,1.57-.16.4-.39.6-.67.6a2.79,2.79,0,0,1-1.4-.66c-.25-.17-.29-.44-.13-.82q3.21-8.05,3.4-12c0-.76-.07-1.14-.32-1.14a2.67,2.67,0,0,0-1,.64,21.33,21.33,0,0,0-3.53,4.11A34.46,34.46,0,0,0,126,41.18c-.28.77-.53,1.16-.77,1.16a3,3,0,0,1-1.25-.77,1.33,1.33,0,0,1-.32-1.31A101.65,101.65,0,0,1,129.25,20q2.58-6.26,4.65-8.18a1.55,1.55,0,0,1,1-.48,2.41,2.41,0,0,1,1.32.6Z"/><path class="cls-3" d="M112,23.05a2.67,2.67,0,0,0-2.48-1.56c-1.88,0,1.22,4.32,2.07,4.11s4.29-2.24,3.27-3.35S112,23.05,112,23.05Z"/><path class="cls-2" d="M30.09,53.67a2.18,2.18,0,0,1-.15.82,1.69,1.69,0,0,1-.43.62,1.81,1.81,0,0,1-.68.39,2.78,2.78,0,0,1-1,.14h-.69v2.18a.11.11,0,0,1,0,.06.13.13,0,0,1-.07,0L27,58h-.38l-.13,0a.1.1,0,0,1-.06,0s0,0,0-.06V52.25a.31.31,0,0,1,.1-.27.33.33,0,0,1,.22-.08H28l.37,0a2.72,2.72,0,0,1,.43.07,1.59,1.59,0,0,1,.5.2,1.68,1.68,0,0,1,.43.36,1.42,1.42,0,0,1,.27.5A1.75,1.75,0,0,1,30.09,53.67Zm-.85.07a1.27,1.27,0,0,0-.13-.62,1,1,0,0,0-.34-.37,1.18,1.18,0,0,0-.42-.15,2.15,2.15,0,0,0-.43,0h-.74V55h.72a1.72,1.72,0,0,0,.61-.1,1.11,1.11,0,0,0,.4-.26,1.14,1.14,0,0,0,.25-.39A1.38,1.38,0,0,0,29.24,53.74Z"/><path class="cls-2" d="M40.85,57.82a.11.11,0,0,1,0,.06.13.13,0,0,1-.07,0l-.12,0h-.39l-.12,0a.1.1,0,0,1-.06,0s0,0,0-.06V55.14H37.3v2.68a.11.11,0,0,1,0,.06.1.1,0,0,1-.06,0l-.13,0h-.38l-.13,0a.1.1,0,0,1-.06,0s0,0,0-.06V52a.07.07,0,0,1,0-.06.1.1,0,0,1,.06-.05l.13,0h.38l.13,0a.1.1,0,0,1,.06.05.14.14,0,0,1,0,.06v2.42h2.75V52a.07.07,0,0,1,0-.06.1.1,0,0,1,.06-.05l.12,0h.39l.12,0a.13.13,0,0,1,.07.05.14.14,0,0,1,0,.06Z"/><path class="cls-2" d="M52.69,54.85a4.86,4.86,0,0,1-.17,1.32,2.79,2.79,0,0,1-.52,1,2.21,2.21,0,0,1-.86.64,3.19,3.19,0,0,1-1.21.22,3.28,3.28,0,0,1-1.18-.2,2.24,2.24,0,0,1-.82-.59,2.67,2.67,0,0,1-.48-1A4.77,4.77,0,0,1,47.29,55a4.69,4.69,0,0,1,.17-1.29,2.88,2.88,0,0,1,.52-1,2.33,2.33,0,0,1,.87-.63,3.13,3.13,0,0,1,1.2-.22,3.18,3.18,0,0,1,1.17.2,2.13,2.13,0,0,1,.82.59,2.52,2.52,0,0,1,.49.95A4.67,4.67,0,0,1,52.69,54.85Zm-.85.06a4.82,4.82,0,0,0-.09-1,2.16,2.16,0,0,0-.3-.76,1.41,1.41,0,0,0-.57-.51A1.9,1.9,0,0,0,50,52.5a1.82,1.82,0,0,0-.88.19,1.64,1.64,0,0,0-.58.53,2.17,2.17,0,0,0-.31.76,3.93,3.93,0,0,0-.1.92,5,5,0,0,0,.09,1,2.21,2.21,0,0,0,.3.77,1.42,1.42,0,0,0,.56.5,1.91,1.91,0,0,0,.88.18,1.86,1.86,0,0,0,.89-.19,1.64,1.64,0,0,0,.58-.53,2.31,2.31,0,0,0,.31-.77A4.73,4.73,0,0,0,51.84,54.91Z"/><path class="cls-2" d="M62.93,52.25c0,.06,0,.11,0,.15l0,.11,0,.05a.1.1,0,0,1-.07,0h-1.7v5.24a.11.11,0,0,1,0,.06.1.1,0,0,1-.06,0l-.13,0h-.38l-.13,0a.1.1,0,0,1-.06,0s0,0,0-.06V52.58h-1.7a.08.08,0,0,1-.07,0,.12.12,0,0,1,0-.05l0-.11a.66.66,0,0,1,0-.15.81.81,0,0,1,0-.16l0-.11a.1.1,0,0,1,0-.06l.07,0h4.2l.07,0s0,0,0,.06l0,.11S62.93,52.19,62.93,52.25Z"/><path class="cls-2" d="M74,54.85a4.86,4.86,0,0,1-.17,1.32,2.79,2.79,0,0,1-.52,1,2.21,2.21,0,0,1-.86.64,3.51,3.51,0,0,1-2.39,0,2.24,2.24,0,0,1-.82-.59,2.52,2.52,0,0,1-.48-1A4.77,4.77,0,0,1,68.64,55a4.69,4.69,0,0,1,.17-1.29,2.88,2.88,0,0,1,.52-1,2.37,2.37,0,0,1,.86-.63,3.22,3.22,0,0,1,1.21-.22,3.09,3.09,0,0,1,1.16.2,2.17,2.17,0,0,1,.83.59,2.52,2.52,0,0,1,.49.95A4.67,4.67,0,0,1,74,54.85Zm-.85.06a4.82,4.82,0,0,0-.09-1,2.16,2.16,0,0,0-.3-.76,1.41,1.41,0,0,0-.57-.51,1.94,1.94,0,0,0-.88-.18,1.78,1.78,0,0,0-.87.19,1.64,1.64,0,0,0-.58.53,2.18,2.18,0,0,0-.32.76,4.56,4.56,0,0,0-.09.92,5,5,0,0,0,.09,1,2.21,2.21,0,0,0,.3.77,1.36,1.36,0,0,0,.56.5,1.91,1.91,0,0,0,.88.18,1.86,1.86,0,0,0,.89-.19,1.53,1.53,0,0,0,.57-.53,2.32,2.32,0,0,0,.32-.77A4.73,4.73,0,0,0,73.19,54.91Z"/><path class="cls-2" d="M85,52.72c0,.06,0,.11,0,.16L85,53a.1.1,0,0,1,0,.06.07.07,0,0,1-.06,0,.43.43,0,0,1-.19-.09,2.44,2.44,0,0,0-.34-.19,4,4,0,0,0-.53-.2,2.6,2.6,0,0,0-.73-.09,2.11,2.11,0,0,0-.89.18,1.9,1.9,0,0,0-.67.51,2.18,2.18,0,0,0-.43.76,3.34,3.34,0,0,0-.14,1,3,3,0,0,0,.16,1,2.27,2.27,0,0,0,.44.76,2,2,0,0,0,.68.47,2.45,2.45,0,0,0,.87.15,2.91,2.91,0,0,0,.57-.06,2.44,2.44,0,0,0,.53-.21V55.29h-1.4a.12.12,0,0,1-.12-.08.49.49,0,0,1,0-.24.66.66,0,0,1,0-.15.81.81,0,0,1,0-.11l0-.06h2.09l.09.06a.36.36,0,0,1,.07.1A.77.77,0,0,1,85,55v2.3a.46.46,0,0,1,0,.21.41.41,0,0,1-.18.16l-.35.15-.44.13a3.73,3.73,0,0,1-.46.09l-.46,0a3.54,3.54,0,0,1-1.26-.21,2.71,2.71,0,0,1-.93-.62,2.9,2.9,0,0,1-.58-1,3.81,3.81,0,0,1-.2-1.25,3.64,3.64,0,0,1,.22-1.31,2.85,2.85,0,0,1,.61-1,2.75,2.75,0,0,1,1-.64,3.23,3.23,0,0,1,1.22-.22,3.34,3.34,0,0,1,.65.06,5.25,5.25,0,0,1,.54.14,1.66,1.66,0,0,1,.4.18,1.33,1.33,0,0,1,.22.15.29.29,0,0,1,.08.14A.71.71,0,0,1,85,52.72Z"/><path class="cls-2" d="M95.73,57.82a.11.11,0,0,1,0,.06s0,0-.06,0l-.13,0H95.1l-.12,0-.08-.06,0-.09-.55-1.43c-.07-.16-.14-.31-.21-.44a1.3,1.3,0,0,0-.25-.35.89.89,0,0,0-.34-.23,1.13,1.13,0,0,0-.47-.08H92.5v2.57s0,0,0,.06a.1.1,0,0,1-.06,0l-.12,0h-.39l-.12,0a.1.1,0,0,1-.07,0,.11.11,0,0,1,0-.06V52.23a.3.3,0,0,1,.1-.26.37.37,0,0,1,.2-.07h1.66l.28,0a2.25,2.25,0,0,1,.62.19,1.87,1.87,0,0,1,.45.33,1.33,1.33,0,0,1,.27.46,1.7,1.7,0,0,1,.09.57,1.87,1.87,0,0,1-.08.55,1.44,1.44,0,0,1-.61.74,2.14,2.14,0,0,1-.48.23,1,1,0,0,1,.27.17,1.06,1.06,0,0,1,.23.24,2,2,0,0,1,.2.32c.06.12.12.26.18.41l.55,1.33c0,.11.07.19.08.23A.65.65,0,0,1,95.73,57.82Zm-1.21-4.24a1,1,0,0,0-.16-.6.89.89,0,0,0-.53-.36l-.26,0-.39,0H92.5v2h.79a1.82,1.82,0,0,0,.55-.08,1.07,1.07,0,0,0,.38-.21.86.86,0,0,0,.23-.33A1.05,1.05,0,0,0,94.52,53.58Z"/><path class="cls-2" d="M106.59,57.66a.37.37,0,0,1,0,.16.17.17,0,0,1,0,.1.33.33,0,0,1-.13,0H106l-.13,0a.1.1,0,0,1-.06,0,.16.16,0,0,1,0-.07l-.52-1.47h-2.51l-.5,1.45,0,.08-.07,0L102,58h-.43a.23.23,0,0,1-.12-.05.1.1,0,0,1,0-.09s0-.1,0-.17l2-5.61a.22.22,0,0,1,0-.08.19.19,0,0,1,.09-.05.33.33,0,0,1,.15,0h.47a.35.35,0,0,1,.16,0l.1.05a.36.36,0,0,1,0,.09Zm-2.6-5h0l-1,3h2.1Z"/><path class="cls-2" d="M116.49,53.67a2.18,2.18,0,0,1-.15.82,1.79,1.79,0,0,1-.42.62,2,2,0,0,1-.68.39,2.8,2.8,0,0,1-1,.14h-.68v2.18a.11.11,0,0,1,0,.06.18.18,0,0,1-.07,0l-.12,0H113l-.12,0a.13.13,0,0,1-.07,0,.11.11,0,0,1,0-.06V52.25a.34.34,0,0,1,.1-.27.37.37,0,0,1,.22-.08h1.29l.38,0a2.61,2.61,0,0,1,.42.07,1.5,1.5,0,0,1,.5.2,1.53,1.53,0,0,1,.43.36,1.62,1.62,0,0,1,.28.5A2,2,0,0,1,116.49,53.67Zm-.84.07a1.26,1.26,0,0,0-.14-.62.88.88,0,0,0-.34-.37,1.18,1.18,0,0,0-.42-.15,2.06,2.06,0,0,0-.42,0h-.74V55h.72a1.71,1.71,0,0,0,.6-.1,1.15,1.15,0,0,0,.41-.26,1,1,0,0,0,.24-.39A1.39,1.39,0,0,0,115.65,53.74Z"/><path class="cls-2" d="M127.25,57.82a.11.11,0,0,1,0,.06.1.1,0,0,1-.06,0L127,58h-.38l-.12,0a.1.1,0,0,1-.07,0,.11.11,0,0,1,0-.06V55.14H123.7v2.68s0,0,0,.06a.18.18,0,0,1-.07,0l-.12,0h-.39l-.13,0a.1.1,0,0,1-.06,0,.11.11,0,0,1,0-.06V52a.14.14,0,0,1,0-.06.1.1,0,0,1,.06-.05l.13,0h.39l.12,0a.18.18,0,0,1,.07.05.13.13,0,0,1,0,.06v2.42h2.75V52a.14.14,0,0,1,0-.06.1.1,0,0,1,.07-.05l.12,0H127l.13,0a.1.1,0,0,1,.06.05.14.14,0,0,1,0,.06Z"/><path class="cls-2" d="M136,55.59v2.23a.11.11,0,0,1,0,.06.1.1,0,0,1-.06,0l-.13,0h-.38l-.13,0a.1.1,0,0,1-.06,0s0,0,0-.06V55.59l-1.71-3.4c0-.08,0-.13-.06-.17a.12.12,0,0,1,0-.1.28.28,0,0,1,.13,0H134l.14,0s.06,0,.07,0a.35.35,0,0,1,.05.08l.84,1.74.23.52.24.54h0c.07-.18.14-.35.22-.53s.15-.35.23-.52l.84-1.74a.2.2,0,0,1,0-.08.13.13,0,0,1,.07-.05l.12,0h.46a.32.32,0,0,1,.14,0,.09.09,0,0,1,0,.09,1.2,1.2,0,0,1-.06.17Z"/></svg>