<?xml version="1.0" encoding="UTF-8"?><svg id="a" xmlns="http://www.w3.org/2000/svg" viewBox="0 0 200.26 200.26"><defs><style>.b{fill:#fff;}.c{fill:#f6bdd8;}</style></defs><circle class="c" cx="100.13" cy="100.13" r="100.13"/><path class="b" d="M171.92,76.31v.74c0,21.46,0,42.91,0,64.37,0,4.3-2.2,7.62-5.96,9.12-1.2,.48-2.43,.63-3.72,.63-35.36,0-70.72,0-106.08,0-6.09,0-12.19,0-18.28,0-5.42-.02-9.52-4.08-9.53-9.46-.01-21.64,0-43.29,0-64.93,0-.14,.01-.28,.03-.57,2.36,1.44,4.64,2.82,6.91,4.22,16.42,10.07,32.84,20.15,49.26,30.23,3.91,2.4,7.82,4.79,11.73,7.18,2.56,1.57,5.13,1.59,7.7,.03,17.71-10.83,35.41-21.66,53.12-32.49,4.89-2.99,9.78-5.97,14.84-9.06Z"/><path class="b" d="M100.19,49.07c20.67,0,41.34,0,62.01,0,5.62,0,9.66,4.04,9.73,9.64,.01,.75-.19,1.18-.86,1.59-11.52,7.01-23.02,14.06-34.53,21.09-11.85,7.25-23.71,14.48-35.54,21.75-.68,.42-1.13,.37-1.77-.03-17.13-10.54-34.28-21.06-51.43-31.58-6.26-3.84-12.51-7.68-18.78-11.49-.52-.31-.7-.63-.7-1.23-.04-5.52,4.09-9.74,9.64-9.74,20.74-.01,41.49,0,62.23,0Z"/></svg>