<?xml version="1.0" encoding="UTF-8"?><svg id="a" xmlns="http://www.w3.org/2000/svg" viewBox="0 0 262.12 375.95"><defs><style>.b{fill:#f6bdd8;}</style></defs><path class="b" d="M134,375.95h-5.14c-.12-.12-.24-.46-.37,0h-1.1c.07-.08,.22-.21,.21-.22-.11-.14-.21-.33-.36-.39-3.64-1.33-5.54-4.3-6.96-7.62-1.05-2.46-2-4.98-2.8-7.53-4.14-13.17-8.74-26.14-15.46-38.25-6.39-11.5-13.94-22.25-21.51-32.98-2.56-3.63-5.17-7.24-7.76-10.85,4.55-5.36,9.12-10.71,13.65-16.08,14.12-16.74,28.22-33.48,42.33-50.22,11.58-13.75,23.16-27.51,34.73-41.28,.3-.36,.96-.62,.65-1.31l-.03,.03c.9,.05,1.03-.61,1.16-1.26,1.63-1.36,3.08-2.9,4.42-4.54,1.49-1.81,2.96-3.64,4.44-5.46,.54-.58,1.09-1.15,1.6-1.75,7.56-8.97,15.12-17.94,22.68-26.92,8.85-10.51,17.7-21.03,26.56-31.54,7.52-8.92,15.06-17.83,22.58-26.75,.2,.3,.45,.58,.61,.9,6.98,13.91,11.53,28.55,13.32,44.03,.05,.4-.36,1.26,.67,1.16v30.84c-.13-.06-.21-.35-.4-.08-.07,.1-.15,.2-.17,.31-.45,3.45-.79,6.92-1.37,10.34-3.18,18.94-10.14,36.46-20,52.89-8.77,14.61-19.2,28-29.77,41.31-12.31,15.51-24.69,30.96-35.92,47.29-10.04,14.59-18.85,29.79-24.62,46.63-2.37,6.91-4.25,14-7.07,20.75-1.71,4.1-4.19,7.44-8.82,8.55Z"/><path class="b" d="M136.57,0h4.04c-.07,1.02,.79,.63,1.18,.66,4.8,.3,9.55,1.01,14.26,1.96,5.1,1.02,10.2,2.08,15.07,3.99-.26,.25-.54,.49-.77,.76-4.88,5.78-9.74,11.59-14.63,17.36-5.17,6.09-10.41,12.14-15.57,18.24-6.31,7.45-12.54,14.97-18.85,22.42-6.51,7.68-13.11,15.28-19.57,23.01-1.3,1.56-3.04,2.85-3.61,4.97l-.36,.31-.42,.38c-1.61,1.6-3.23,3.19-4.84,4.79-10.89-9.13-21.78-18.26-32.67-27.38-9.68-8.11-19.36-16.2-29.04-24.3,.19-.3,.35-.63,.58-.9,13.1-15.4,28.96-27.11,47.46-35.22C91.88,5.3,105.53,1.8,119.78,.67c.48-.04,1.31,.34,1.37-.67h4.41c.19,.47,.61,.32,.94,.3,2.93-.18,5.86-.08,8.78,0,.43,.01,.99,.32,1.29-.3Z"/><path class="b" d="M30.77,47.16c9.68,8.1,19.37,16.2,29.04,24.3,10.89,9.12,21.78,18.25,32.67,27.38-1.39,1.93-2.78,3.85-4.17,5.78-.43,.08-.69,.28-.57,.77l.02-.03c-.72-.16-.93,.46-1.26,.85-16.25,19.31-32.49,38.64-48.74,57.95-8.18,9.73-16.39,19.43-24.58,29.15-3.04-5.84-5.16-12.04-7.06-18.32-2.86-9.47-4.65-19.15-5.42-29.02-.03-.42-.09-.85-.2-1.26-.08-.28-.29-.34-.5-.06v-3.67c.17,.08,.3,.03,.3-.17,0-.19-.11-.26-.3-.2v-18.36c.19,.08,.31,.02,.31-.18s-.12-.27-.31-.18v-2.2c.88,.25,.58-.53,.62-.83,.19-1.2,.28-2.42,.42-3.64,2.14-17.86,7.85-34.53,16.91-50.04,3.73-6.39,7.84-12.52,12.81-18.03Z"/><path class="b" d="M136.57,0c-.31,.62-.87,.31-1.29,.3-2.93-.07-5.86-.18-8.78,0-.33,.02-.75,.17-.94-.3h11.01Z"/><path class="b" d="M13.18,193.32c8.2-9.72,16.4-19.42,24.58-29.15,16.25-19.31,32.49-38.64,48.74-57.95,.33-.39,.54-1.01,1.26-.85-.17,.39-.31,.79-.51,1.16-5.85,10.63-7.64,21.92-5.43,33.83,6.11,32.97,42.4,50.77,72.23,35.48,3.6-1.85,6.77-4.31,10.06-6.62,.32,.69-.35,.95-.65,1.31-11.56,13.77-23.14,27.52-34.73,41.28-14.11,16.74-28.21,33.49-42.33,50.22-4.53,5.37-9.1,10.72-13.65,16.08-2.72-2.81-4.9-6.05-7.31-9.1-11.13-14.09-22.64-27.89-33.01-42.56-7.05-9.98-13.48-20.33-18.63-31.43-.25-.54-.41-1.13-.62-1.7Z"/><path class="b" d="M171.11,6.61c5.26,1.32,10.21,3.47,15.12,5.72,16.43,7.51,30.63,18.08,42.72,31.47,7.1,7.86,13.09,16.53,18.08,25.87,.22,.42,.32,.9,.48,1.35-7.53,8.92-15.06,17.83-22.58,26.75-8.86,10.51-17.71,21.03-26.56,31.54-7.56,8.97-15.11,17.95-22.68,26.92-.51,.6-1.07,1.17-1.6,1.75-.32-.79,.37-1.23,.68-1.77,5.73-10.1,7.85-20.95,6.11-32.38-1.86-12.22-7.37-22.67-16.99-30.57-15.96-13.11-33.68-15.56-52.81-7.91-4.78,1.91-8.92,4.9-12.98,8.01,.57-2.11,2.31-3.41,3.61-4.97,6.46-7.73,13.06-15.33,19.57-23.01,6.31-7.45,12.55-14.97,18.85-22.42,5.16-6.1,10.4-12.15,15.57-18.24,4.9-5.77,9.75-11.57,14.63-17.36,.23-.28,.51-.51,.77-.76Z"/><path class="b" d="M164.07,169.24c.19-.6,.76-.86,1.16-1.26-.13,.66-.26,1.32-1.16,1.26Z"/><path class="b" d="M97.74,93.67l-.42,.38,.42-.38Z"/><path class="b" d="M88.31,104.62l-.57,.77c-.12-.49,.14-.69,.57-.77Z"/></svg>