<?xml version="1.0" encoding="UTF-8"?><svg id="a" xmlns="http://www.w3.org/2000/svg" viewBox="0 0 127.76 129.04"><defs><style>.b{fill:#ffbde3;}</style></defs><path class="b" d="M0,111.85V16.35c.05,.05,.11,.1,.17,.13,.04,.03,.15,.04,.15,.04,.39-1.14,.74-2.29,1.17-3.42C3.92,6.71,8.81,3.12,15.1,1.07c.59-.19,1.71,.17,1.68-1.07H112.71c-.14,.93,.68,.66,1.07,.76,7.06,1.78,11.4,6.23,13.21,13.24,.1,.39-.17,1.22,.77,1.05V113.13c-.11-.06-.29-.19-.3-.18-.13,.16-.3,.33-.35,.52-2.02,8.14-7.64,12.54-15.32,14.81-.34,.1-1.04-.02-.8,.76H16.35l.17-.32c-.25-.13-.49-.31-.76-.37-8.26-2.01-12.84-7.56-14.97-15.49-.1-.39,.16-1.23-.79-1.02H0Zm58.09-25.97c3.18,4.14,7.1,6.29,11.78,6.69,11.3,.95,19.82-3.91,26.05-13.09,3.98-5.88,5.83-12.53,6.74-19.51,2.27-17.47-6.95-32.23-23.52-37.48-6.33-2.01-12.82-2.32-19.35-1.38-13.29,1.9-23.78,8.13-30.13,20.26-4.71,8.99-5.26,18.35-1.29,27.79,1.73,4.11,4.66,7.18,8.77,9.04,1.47,.66,2.77,.53,3.26-1.2,.94-3.31,2.47-6.61-.83-9.72-1.38-1.3-1.79-3.39-2.16-5.31-.86-4.48-.34-8.86,1.1-13.13,4.34-12.91,17.35-20.34,31.5-18.04,9.96,1.62,16.56,7.02,18.24,16,1.96,10.45,.06,20.4-5.87,29.37-1.89,2.86-4.48,5.05-7.85,6.06-3.73,1.12-7.28,.85-10.25-1.92-2.89-2.7-3.24-6.06-2.16-9.7,1.16-3.91,2.34-7.82,3.45-11.75,.86-3.04,1.61-6.11,1.14-9.31-.62-4.27-3.56-6.82-7.83-6.63-4.86,.21-7.65,3.27-9.37,7.4-2.08,4.98-1.82,10.08-.11,15.13,.34,.99,.39,1.87,.14,2.9-1.74,7.17-3.23,14.4-5.14,21.52-2.54,9.46-3.76,18.96-2.21,28.7,.11,.67-.05,1.59,.85,1.77,.76,.16,1.05-.63,1.43-1.12,4.9-6.45,8.83-13.36,10.6-21.38,.86-3.91,1.95-7.76,3.02-11.96h0Z"/></svg>