<?xml version="1.0" encoding="UTF-8"?><svg id="a" xmlns="http://www.w3.org/2000/svg" viewBox="0 0 66.6 16.76"><defs><style>.b{fill:#fff;}</style></defs><path class="b" d="M13.35,4.34c-.36,1.15-.9,2.24-1.59,3.22-.6,1-1.36,1.89-2.26,2.64-.37,.3-.83,.46-1.31,.48-.62-.12-1.23-.31-1.8-.58-.19-.08-.28-.17-.28-.27s.21-.23,.64-.23c.58,.04,1.15-.12,1.63-.44,.83-.66,1.54-1.45,2.12-2.34,.79-1.1,1.32-2.36,1.54-3.7,.09-.67-.13-1.07-.68-1.2-.25-.05-.51-.05-.76,0-1.21,.06-2.4,.33-3.51,.8-1.28,4.7-2.48,8.46-3.59,11.28,.24-.11,.48-.24,.7-.39,.15-.12,.34-.18,.54-.18,.22,0,.44,.27,.66,.68,.14,.23,.23,.48,.27,.75,0,.21-.13,.3-.41,.28-.36,.02-.7,.14-1,.33-.46,.24-.89,.55-1.27,.91-.13,.15-.33,.25-.53,.26-.39-.04-.74-.23-1-.52-.24-.22-.34-.42-.31-.58s.15-.23,.38-.28c1.73-3.88,3.15-7.9,4.25-12C2.93,4.55,1.5,5.76,1.5,6.9c0,.16,.03,.33,.09,.48,.06,.2,.14,.4,.22,.6,.01,.07,.01,.15,0,.22,0,.22-.09,.33-.26,.33s-.71-.68-1.4-2c-.1-.17-.15-.36-.15-.56,.07-.6,.39-1.14,.87-1.5,.7-.57,1.45-1.08,2.25-1.5,1.01-.59,2.07-1.1,3.17-1.52,.11-.32,.18-.65,.21-.98,0-.31,0-.47,.19-.47s.58,.29,1.11,.86c.85-.29,1.73-.48,2.62-.56,.85,.02,1.59,.57,1.85,1.38,.34,.23,.65,.5,.93,.8,.2,.25,.3,.55,.3,.87-.01,.33-.06,.67-.15,.99Z"/><path class="b" d="M20.01,8.92c-.05,.94-.22,1.86-.5,2.76-.37,1.56-1.12,3-2.16,4.22-.41,.49-1,.78-1.64,.8-.31-.01-.61-.06-.9-.15-.66-.02-1.29-.26-1.79-.69-.5-.44-.76-1.09-.71-1.75,.12-1.19,.41-2.36,.86-3.47,.4-1.27,1.03-2.45,1.85-3.49,.31-.35,.56-.52,.75-.52s.7,.28,1.29,.82l1-.43c.19-.07,.38-.12,.58-.13,.31,0,.65,.29,1,.86,.26,.34,.39,.75,.37,1.17Zm-1.34,.34c0-.53,.08-.86,.08-1,0-.33-.1-.49-.31-.49-.1,0-.2,.02-.3,.05l-1.82,.73c-.11,.06-.24,.1-.36,.13-.06,0-.13-.07-.19-.22-.54,.73-.97,1.54-1.27,2.4-.28,.72-.49,1.46-.64,2.21-.08,.39-.12,.79-.13,1.19,0,1.2,.37,1.79,1.12,1.76,.36-.02,.7-.15,1-.35,.83-.71,1.45-1.64,1.81-2.67,.52-1.19,.86-2.45,1.01-3.74Z"/><path class="b" d="M28.25,7.52c0,.99-.13,1.98-.41,2.93-.08,.28-.2,.43-.35,.43s-.35-.16-.73-.47c-.18-.17-.24-.44-.14-.67,.19-.56,.3-1.15,.33-1.74,0-.15,0-.23-.09-.23s-.25,.15-.46,.43c-1.64,2.13-2.87,4.54-3.64,7.12-.26,.84-.48,1.26-.66,1.26-.32-.11-.63-.24-.93-.41-.27-.16-.38-.49-.27-.78,.51-2.32,1.18-4.61,2-6.84-.39,.4-.76,.81-1.11,1.25-.03,.13-.16,.21-.29,.2-.14,0-.2-.06-.2-.17,0-.09,.04-.17,.09-.24,.38-.46,.9-1.16,1.54-2.11,.19-.34,.39-.51,.58-.51,.3,.06,.6,.17,.86,.33,.24,.12,.28,.29,.11,.5-.41,.77-.74,1.57-1,2.4-.45,1.34-.76,2.38-.94,3.14,1-2.24,2.24-4.37,3.7-6.34,.25-.34,.46-.51,.62-.51,.22,.03,.42,.13,.57,.28,.21,0,.43,.06,.62,.15,.14,.13,.2,.32,.2,.6Z"/><path class="b" d="M35.01,1.38c.22,.12,.33,.25,.33,.4s-.07,.15-.22,.15h-.15s-.09,0-.14,0c-.3,0-.66,.32-1.08,1-.65,1.2-1.17,2.46-1.56,3.77-.06,.18-.09,.28-.07,.31s.12,.09,.3,.09c.62,.05,1.23,.05,1.85,0,.27,0,.4,.09,.4,.34s-.1,.27-.3,.31-1,.1-2.59,.21c-.82,2.26-1.4,4.61-1.71,7v.27c0,.27,.06,.4,.2,.4s.83-.63,1.9-1.63c.09-.11,.22-.18,.36-.19,.09,0,.17,.05,.19,.13,0,.12-.03,.24-.11,.33-.57,.76-1.19,1.47-1.86,2.13-.17,.19-.4,.32-.65,.36-.3-.06-.57-.2-.79-.41-.45-.11-.67-.35-.67-.7,0-.06,0-.13,0-.19,.41-2.52,.99-5.01,1.72-7.46l-1.12-.16c-.14-.02-.24-.14-.23-.28-.02-.16,.09-.3,.24-.33l.86-.23c.26-.09,.51-.21,.75-.35,.51-1.73,1.18-3.4,2-5,.28-.44,.57-.66,.88-.66,.45,.04,.88,.17,1.27,.39Z"/><path class="b" d="M41.4,7.52c0,.99-.13,1.98-.41,2.93-.09,.28-.2,.43-.35,.43s-.35-.16-.73-.47c-.19-.17-.25-.44-.14-.67,.19-.56,.3-1.15,.33-1.74,0-.15,0-.23-.09-.23s-.25,.15-.46,.43c-1.64,2.13-2.87,4.55-3.65,7.12-.25,.84-.47,1.26-.65,1.26-.32-.11-.63-.24-.93-.41-.27-.16-.38-.49-.27-.78,.51-2.32,1.18-4.61,2-6.84-.57,.61-.94,1-1.1,1.25-.05,.09-.15,.14-.25,.14-.14,0-.2-.06-.2-.17,0-.09,.04-.17,.09-.24,.38-.46,.89-1.16,1.53-2.11,.2-.34,.4-.51,.59-.51,.3,.06,.6,.17,.86,.33,.24,.12,.28,.29,.11,.5-.41,.77-.74,1.57-1,2.4-.45,1.34-.76,2.38-.94,3.14,.99-2.22,2.21-4.32,3.64-6.28,.26-.34,.47-.51,.63-.51,.22,.03,.42,.13,.57,.28,.22,.03,.43,.11,.62,.23,.14,.13,.21,.33,.2,.52Z"/><path class="b" d="M49.7,8.53c-.62,1.63-1.11,3.3-1.49,5,.16-.16,.32-.33,.46-.51,.11-.14,.23-.27,.36-.4,.08-.12,.21-.2,.35-.21,.09-.01,.17,.05,.18,.14,0,.01,0,.03,0,.04-.01,.09-.05,.18-.1,.25-.69,.99-1.19,2.11-1.46,3.29-.07,.31-.18,.47-.32,.47-.27-.07-.53-.2-.74-.38-.15-.08-.28-.2-.36-.35-.04-.17-.04-.34,0-.51,.25-1.7,.66-3.38,1.23-5-.83,1.29-1.76,2.52-2.78,3.66-.66,.81-1.4,1.55-2.21,2.22-.21,.18-.47,.3-.75,.34-.25-.05-.47-.17-.65-.34-.37-.2-.61-.58-.62-1,0-.1,0-.19,0-.29,.24-1.42,.76-2.78,1.52-4,.8-1.44,1.81-2.75,3-3.88,.25-.29,.61-.48,1-.51,.62,.24,1.17,.62,1.6,1.12,.07,.05,.11,.12,.11,.2,0,.12-.09,.18-.25,.18-.06,0-.12,0-.18,0-.41-.25-.92-.25-1.33,0-.97,.8-1.8,1.77-2.44,2.85-.9,1.26-1.54,2.7-1.86,4.22,0,.05,0,.1,0,.15,0,.19,.07,.29,.23,.29,.39-.04,.75-.24,1-.55,1.01-1.01,1.95-2.08,2.81-3.21,.78-.92,1.45-1.93,2-3,.21-.5,.35-.85,.41-1.06s.21-.52,.33-.52c.3,.1,.58,.26,.82,.48,.18,.13,.28,.25,.29,.36-.02,.16-.07,.32-.16,.46Z"/><path class="b" d="M54.17,8.37c-.38,1.78-.87,3.54-1.46,5.26,.35-.34,.66-.71,.94-1.11,.03-.06,.09-.1,.16-.11,.13,0,.14,.11,0,.33s-.37,.62-1,1.6c-.4,.63-.73,1.3-1,2-.05,.17-.21,.28-.39,.27-.27-.03-.53-.12-.76-.27-.2-.11-.3-.2-.3-.25,.02-.11,.07-.21,.13-.3,.59-1.19,1.06-2.44,1.4-3.73,.4-1.22,.68-2.48,.84-3.76,0-.35,0-.53-.11-.53s-.2,.09-.38,.26l-.72,.68c-.26,.23-.39,.23-.39,0,.01-.09,.05-.17,.11-.23,.37-.52,.77-1.01,1.2-1.48,.09-.11,.22-.18,.36-.2,.2,.03,.39,.12,.55,.26,.2,.05,.4,.11,.6,.18,.2,.14,.3,.37,.27,.61,0,.17-.02,.35-.05,.52Zm1.66-5.14c.11,.07,.17,.19,.18,.32,0,.23-.33,.58-1,1.06-.37,.28-.83,.4-1.29,.32-.22-.04-.43-.12-.61-.25-.05-.04-.1-.09-.13-.15v-.12s.07,0,.14,0c.49-.43,.96-.91,1.38-1.41,.18-.21,.31-.31,.39-.31,.35,.11,.67,.29,.94,.54Z"/><path class="b" d="M62.06,1.38c.22,.12,.33,.25,.33,.4s-.08,.15-.22,.15h-.15s-.1,0-.15,0c-.29,0-.65,.32-1.08,1-.64,1.2-1.16,2.47-1.55,3.77-.07,.18-.09,.28-.07,.31s.12,.09,.3,.09c.62,.05,1.23,.05,1.85,0,.27,0,.4,.09,.4,.34s-.1,.27-.3,.31-1,.1-2.59,.21c-.82,2.27-1.4,4.61-1.72,7v.27c0,.27,.07,.4,.2,.4s.84-.63,1.9-1.63c.09-.11,.23-.18,.37-.19,.09-.01,.16,.05,.18,.13,.02,.12-.02,.24-.1,.33-.57,.75-1.2,1.47-1.87,2.13-.16,.19-.39,.32-.64,.36-.3-.06-.58-.2-.8-.41-.44-.11-.66-.35-.66-.7,0-.06,0-.13,0-.19,.41-2.52,.98-5.01,1.72-7.46l-1.13-.16c-.14-.02-.24-.14-.22-.28h0c-.02-.16,.08-.3,.23-.33l.87-.23c.26-.09,.51-.21,.75-.35,.5-1.73,1.17-3.4,2-5,.27-.44,.57-.66,.88-.66,.45,.04,.88,.17,1.27,.39Z"/><path class="b" d="M64.72,13.68c.02,.94-.64,1.75-1.56,1.92-.09,.24-.21,.47-.37,.68-.22,.2-.5,.31-.8,.33-.24,.02-.49,.02-.73,0l-1.7-.26c-.18-.02-.32-.16-.34-.34,0-.21,.25-.33,.66-.37,.56-.04,1.38-.14,2.46-.3,.39-.07,.71-.33,.87-.69,.11-.21,.16-.45,.15-.69-.11-.9-.36-1.78-.74-2.6-.37-.76-.6-1.59-.68-2.43,.07-1,1-1.65,2.71-2,.17,0,.26,0,.26,.18s-.06,.17-.19,.23c-.84,.36-1.27,.82-1.27,1.35,0,.27,.05,.54,.12,.8,.08,.31,.31,1.07,.7,2.28,.24,.61,.39,1.26,.45,1.91Zm1.88-6.68c-.04,.57-.13,1.14-.28,1.69-.04,.19-.12,.36-.24,.51-.12,.08-.26,.14-.4,.18-.17,.08-.35,.13-.54,.16-.11,0-.17-.08-.17-.23-.01-.11-.01-.23,0-.34,.16-.52,.23-1.07,.22-1.61,0-.3,0-.49,.26-.57,.23-.14,.48-.24,.74-.29,.31-.05,.41,.11,.41,.5Z"/></svg>