<?xml version="1.0" encoding="UTF-8"?><svg id="a" xmlns="http://www.w3.org/2000/svg" viewBox="0 0 162.43 87.63"><defs><style>.b{fill:#ffc5e7;}.c{fill:#353535;font-family:Pristina-Regular, Pristina;font-size:43.02px;}</style></defs><g><path class="b" d="M136.79,58.21c.17,.03,.08-.39,.1-.46-.27,.11-.09,.57-.1,.46Z"/><polygon class="b" points="134.13 59.31 134.17 59.13 133.79 59.58 134.13 59.31"/><path class="b" d="M131.59,59.44c.28,.7,.91-.16,1.38,.06l.08,.16,.17-.59c-.54,.12-1.24,.54-1.64,.36Z"/><path class="b" d="M130.16,57.97c.1,.27-.28,.25,.32,.07-.03-.03-.04-.05-.06-.07-.05,0-.13,0-.26,0Z"/><path class="b" d="M130.42,57.97c.27-.03-.19-.22,0,0h0Z"/><path class="b" d="M129.19,58.19l.34-.26c-.08-.16-.4-.18-.29-.31-.35,.15-.27,.31-.05,.57Z"/><path class="b" d="M128.88,58.73l.18-.11c-.04-.07-.08-.09-.18,.11Z"/><path class="b" d="M129.44,58.37l-.38,.24c.06,.11,.07,.34,.17-.09-.02,.21,.05,0,.2-.15Z"/><path class="b" d="M129.66,58.47c.21,.15,.47,.23,.12,.49,.67-.13,.54-.63-.12-.49Z"/><path class="b" d="M131.5,60.18l.28,.2,.22-.25c-.11,.12-.52-.17-.49,.06Z"/><path class="b" d="M126.98,57.93c-.01,.15,.14,.4,.17,.59l.25-.19c-.14-.1-.4-.18-.42-.41Z"/><path class="b" d="M127.16,58.52l-.38,.28c.35,.01,.41-.11,.38-.28Z"/><polygon class="b" points="128.86 59.52 129.47 58.94 128.74 59.54 128.86 59.52"/><polygon class="b" points="125.5 57.98 125.7 57.62 125.33 58.16 125.5 57.98"/><path class="b" d="M124.51,58.08c.15-.3-.25-.48-.08-.67-.27,.06-.48,.33-.68,.56,.21-.14,.45-.11,.76,.11Z"/><path class="b" d="M123.42,58.32c.11-.07,.21-.2,.33-.34-.11,.07-.22,.17-.33,.34Z"/><path class="b" d="M126.11,58.75c-.03-.09-.1-.33-.33-.42l.17,.42h.15Z"/><path class="b" d="M125.96,58.77h0l-.33-.02,.34,.02Z"/><path class="b" d="M126.15,58.75h-.04s.03,.05,.04,0Z"/><path class="b" d="M127.82,59.18c-.22,.25-.68,.53-.2,.87,.15-.3-.12-.49,.2-.87Z"/><path class="b" d="M126.37,59.28l.42,.08c-.01-.11-.1-.27,.01-.4l-.43,.32Z"/><polygon class="b" points="126.17 59.42 126.37 59.28 126.21 59.25 126.17 59.42"/><path class="b" d="M124.15,58.69c-.17,.19-.36,.22-.58,.26,.24,.07,.49,.11,.72,.09,.03-.14,.12-.38-.13-.35Z"/><path class="b" d="M125.03,58.76l-.04,.03s.05,.05,.04-.03Z"/><path class="b" d="M121.39,59.03l.04,.08v-.07h-.04Z"/><path class="b" d="M124.33,59.12c.18,.07,.28-.04,.38-.17-.13,.05-.27,.08-.42,.09-.01,.06-.01,.1,.04,.08Z"/><path class="b" d="M122.83,58.55c.1,.09,.2,.16,.32,.22-.1-.13-.29-.33-.32-.22Z"/><path class="b" d="M124.93,58.67l.03-.02c-.06-.09-.05-.04-.03,.02Z"/><path class="b" d="M124.93,58.67c-.09,.07-.16,.17-.22,.27,.11-.04,.2-.09,.29-.16-.02-.03-.05-.07-.07-.12Z"/><path class="b" d="M120.85,61.8c.02-.4,.47-.78,.89-.37,.39-.31,.07-1.6-.31-2.32,0,.17,0,.33-.4,.58,.15,.21,.93,.47,.6,.84-.53,.23-.45-.12-.72-.32,.24,.48-.66,.75-.51,1.47l.47-.27c.01,.11-.15,.3-.01,.4Z"/><path class="b" d="M122.21,59.12l.17-.06c-.19-.06-.34-.21-.6-.51-.27,.21-.32,.35-.34,.49l.83,.02-.05,.06Z"/><path class="b" d="M123.13,59.03c-.11,.44-.51,.64-.24,1.09,.49-.05,.33-.38,.62-.58-.79,.14,.22-.25-.37-.47,.15-.08,.29-.11,.42-.13-.15-.05-.29-.1-.42-.18l.02,.03h0c.04,.06,.05,.09,0,.06,0,0-.02,0-.02,0,0,.06-.02,.11-.03,.16-.23-.08-.04-.11,.03-.16v-.07h0l-.79,.26c.17,.05,.38,.03,.75-.03Z"/><path class="b" d="M127.24,61s-.03-.07-.03-.1c-.05,.06-.07,.09,.03,.1Z"/><path class="b" d="M126.9,60.76c.06-.06,.1-.24,.29-.2,.17,.12,0,.21,.02,.35,.11-.12,.38-.33,.02-.52l-.05,.06c-.33-.13-.77-.65-.71-.71,.11,.38,.21,.65,.44,1.03Z"/><path class="b" d="M124.99,60l-.66,.24,.36,.36-.03-.22c.38,.07,.29-.2,.33-.38Z"/><polygon class="b" points="121.31 58.82 121.38 58.36 121.02 59.02 121.31 58.82"/><polygon class="b" points="120.45 58.91 120.46 58.52 120.25 58.76 120.45 58.91"/><path class="b" d="M71.7,64.67l-.2,.11c.09-.03,.15-.07,.2-.11Z"/><path class="b" d="M73.12,64.71l.04-.19c-.07,.11-.09,.19-.04,.19Z"/><path class="b" d="M99.25,59.61c-.29-.36-.62-.93-.58-.49l.1,.43c.2-.08,.35-.04,.48,.05Z"/><path class="b" d="M84.74,62.4l.08,.13,.19-.42-.27,.28Z"/><path class="b" d="M84.55,64.19l-.38-.28c.09,.1,.21,.19,.38,.28Z"/><path class="b" d="M63.93,65.06l-.24,.44c.36,0,.2-.22,.24-.44Z"/><path class="b" d="M111.61,59.4c-.25-.16-.45-.23-.62-.24,.3,.24,.55,.6,.62,.24Z"/><path class="b" d="M72.28,60.07c-.12,.08-.17,.17-.17,.26,.12-.07,.19-.16,.17-.26Z"/><path class="b" d="M110.28,59.18s.09,.06,.13,.1c.18-.08,.36-.14,.58-.12-.22-.18-.48-.28-.71,.03Z"/><path class="b" d="M35.81,63.93s-.04-.03-.06-.05c0,.06,.02,.06,.06,.05Z"/><path class="b" d="M27.83,59.18c.08-.02,.21-.02,.34-.02-.06-.03-.16-.03-.34,.02Z"/><path class="b" d="M116.97,58.86c.18-.04,.03-.05,0,0h0Z"/><path class="b" d="M117.92,60.54s-.06,.11-.07,.21c.01-.1,.03-.17,.07-.21Z"/><path class="b" d="M108.54,61.94h-.02c.06,.08,.05,.07,.02,0Z"/><path class="b" d="M117.25,59.05c-.07-.05-.15-.09-.24-.12,.04,.03,.11,.07,.24,.12Z"/><path class="b" d="M117.21,58.84l.16,.04c.02-.07,0-.12-.16-.04Z"/><path class="b" d="M116.71,58.9c.1-.01,.2,0,.3,.03-.04-.03-.05-.05-.04-.07l-.25,.03Z"/><path class="b" d="M50.91,63.27s-.03-.02-.04-.04c-.19,.17-.11,.15,.04,.04Z"/><path class="b" d="M94.55,64.21s.01-.02,.02-.02l-.03-.02v.04Z"/><path class="b" d="M93.9,64.54c.27-.54,.43-.48,.65-.37l-.24-1.25-.41,1.62Z"/><path class="b" d="M68.29,64.77l.46,.39c-.57,.64-.97,.41-.54,.96,.08-1.36,1.81-.13,1.88-1.48l.3,.29c-.09-.01-.1,.07-.19,.05,.59,.65,.45-.98,1.21-.78,.27,.11,.45,.3,.27,.46l.6-.33c.17,.03,.13,.26-.04,.24l.91-.1v.04c.12-.21,.42-.54,.56-.68,.23,.2-.12,.14-.06,.31l.5-.32c.2,.35-.21,.69-.56,.64,.46,1.36,.42-.34,1.43,.46l-.48,.17c.3,.77,.68,.49,1.21,.97-.13-.25-1.07-1.21-.53-1.55,.15,.1,.36,.15,.65-.12,0,.48,.29,.36,.65,.34l-.03,.64c.39-.18,.36-.51,.59-.8,.43,.06,.52,.56,.62,.98,.69,.1-.48-.79,.34-.92,.58,.25,.98-.02,1.67-.4,.4,.22-.07,.39,.08,.57l.36-.51c.09,.01,.06,.17,.05,.25,.3-.2,.02-.64,.5-.81,.13-.7,.98,1.03,1.56,.22,.15,.18-.07,.39-.02,.64,.8-.53,.69-.39,1.35-1.1l.57,.42c-.42-.48,.11-1.05,.57-1.52-.15-.23-.27-.43-.36-.53l.74-.35c.09,.1,.02,.32-.1,.59,.05-.05,.1-.11,.13-.15,.27,.23,.13,.6-.06,.96l-.27-.39c-.18,.39-.35,.82-.31,1.2,.05-.07,.14-.14,.24-.17-.05,.11-.08,.2-.05,.26,.03,.07,.1-.07,.22-.24l.17,.71,.04-.28,.97,.44c.69-.72,1.28-1.78,2.37-2.09-.27,.53-.05,.85-.06,1.47-.31-.65-.85,.28-1.42,.16,.3,.07,.23,.36,.16,.47l1.01-.6c-.02,.51,.22,.38,.49,.58-.21-1,.75-.68,1.16-.99,.03,.34-.07,.68-.57,.61,.56,.75,.7-1.19,1.26-.55-.12,0-.19-.04-.24,.13,.28-.3,.99-.08,.83,.22h-.12c.82,.12,2.49-.02,2.6-.87,0,.11-.09,1.03-.14,1.2l1.41-2.88c-.12,.73,.4,2.46-.27,2.89,.2,.1,.44,.22,.84-.05-.13-.1-.35-1.05-.17-1.12,.51,.8,.35,.43,.98,1.11-.2-.15,0-1.3,.31-1.27-.05,.17,.05,1.13-.07,1.25l.76-1.14c-.19,.21-.02,.95,.16,1.27-.09-.22,.68,0,.88-.11l-.34-.25c.89,.15,.84-1.6,1.72-1.56-.1,.23-.23,1.43,.22,1.57,.19-.58,.84-2.79,1.61-3.25l.16,.33,.58-.39c-.35,.88-1.34,2.72-1.9,3.44,.34,.25,.1,.39,.59,.35,.18,.31-.26,.47-.4,.49l1.16,.18c-.07-.67,.87-.69,.81-1.25l-1.24,.72c-.07-.67,.68-1.92,1.5-1.82,.21,.26-.13,1.2-.1,1.42,.1-.23,.76-.46,.84-.3l-.34,.37c.46,.24,.72-.91,1.28-.28,.19,.04,.59,.85,.61,.45-.33-.76-.45-3.13-.26-3.71,.07,.05,1.01,.71,1.23,1.08,.33,.59-.43,1.45-.15,1.95,0-.18,.17-.42,.24-.49,.2,.15-.07,.57,.36,.48,.05-.68,.88,.03,.19-.58,.41-.21,.45,.13,.94,.09-.17-.44,.4-1.51,.81-1.72-.02,.17,.08,.4,.13,.5,.86,.04,1.33,.33,2.14,.31,.08,.16,.47,.35,.32,.65,.11-.12,.21-.36,.46-.38,.5,.57-.55,.11-.16,.81,.02-.4,.62-.57,.97-.83-.13-.61-.82-.09-1.16,.17-.03-.84,.56-1.75,1.38-2.17,.66-.23,.31,.54,.42,.41,1.26,.11,1.01-1.51,2.07-.93,.43,.52,.06,1.07,.16,1.45-.54,.22-.85-.31-1.21-.28l.46,.24c-.17,.18-.52,.33-.73,.18,.36,.47,2.12,.03,3.1,.43,.16-.19,.45-.39,.31-.6l-.3,.09c-.3-.42,.55-.62,.16-.81,.4-.32,.84-.82,1.42-.6l.13,.61c-.02-.18-.39-.35-.55-.16,.23-.28,.92,.79,1.15-.02l-.42-.41c.4-.32,.88-1,1.4-.82-.26-.6-.11,.07-.51-.62,.35,.87-1.31,.02-.76,.92-.4-.81-.66-.32-1.17-1,.02,.2,.19,.38-.24,.3-.02,.06-.06,.14-.09,.18h0s-.02,.05,0,.02c.11,.09,.19,.19,.23,.3-.19,.47-.88,.49-1.1,.74-.26-.09,.1-.24-.05-.45l-.33,.37c-.05-.45-.7-.72-.11-1.01h-.54c-.33-.24-.77-.33-1.03-.13-.26-.09-.62,.52-.42,.16l-.84,.31v-.11c-.85-.03-1.7,.8-2.68,.02-.28,.12-.56,.27-1.04,.16l-.1-.39c-.36,.15-1.09-.36-1.24,.05-.42-1.03-1.76-.18-2.39-.35v.51c-.45-.02-.86,.14-1.4,.36l.04,.45c-.46,.38-1.21-.29-1.95-.22,.05-.17,.23-.13,.37-.03-.91-.99-1.85,.78-2.66,.06-.2,.17-.34,.11-.48,0,.02,0,.04-.01,.05-.02-.02,0-.05,0-.08,0-.09-.08-.18-.16-.28-.23,.09,.11,.17,.2,.24,.24-.15,.01-.39,.07-.61,.19l-.11-.48s-.03,0-.05,.01c-.23-.17-.18,.23-.05,.59-.11,.08-.22,.18-.3,.3-.2-.77-.6,.27-.86-.55-.15,.41-1.15,.33-1.25,1.18,0-.11-.08-.16,.05-.17-.26-.09-.51-.18-.74,.06l-.12-.61-.54,.83c-.35-.37-.49-.58-.16-1.06-.8,.74-.65,.28-1.33,1.01l.03-.4c-.25,.02-.63,.55-.79,.23-.56-.75-2.73-.07-4.16-.75,.29,1.16-.66-.51-.71,.39-.09-.27-.28-.43-.06-.67-.72,.27-1.09-.43-1.58,.33-.08-.28,.15-.4,.08-.57-.06,.06-.23,.24-.3,.08-.07-.16,.1-.23,.22-.35-.74,.05-.81,.9-.85,1.7-.38-.37-.56-.32-.83,.2-.13-.26-.35-.53,.11-.63-.26-.04-1.58-.37-1.6,.27-.08-.16-.36-.05-.43,.03-.58-.03-.63-.09-1.2-.03l.16,.1c-.22,.77-.47,.17-.93,.27v-.08c-1.04-.56-.44,.27-1.48-.37l.06,.48c-.1,1.03-.92-.61-1.52-.21l.22,.27c-.33,.35-.92-1.4-1.25-1.53-.07-.09,.11-.14,.21-.21-.86-.61-.11,.63-.76,.77-.12-.34,.15-.86-.28-.93-.21-.28-1.26,1.1-1.85,.45,.13,.26,.26,.52-.04,.72-.46,.09-1.24-1-1.65-.17-.06-.07-.08-.14-.08-.21-.35,.21-1.14,.34-1.36,.79-.31-1.66-2.19,.79-2.17-.74l-1.08,.07,.03-.16c-.69-.11-.94,.25-1.18,.62-.16-.11-.04-.25-.03-.33-1-.32-1.1-.26-1.96,.49l-.08-.5c-.23,.28-1.45-.8-2.44-.23,.01-.06,.03-.15,.11-.22-1.12,.57-2.64-1.42-3.08,.38l-.74,.43c.95,.16-.16,.78,.23,1.09-.38,.1-.96-.56-.49-.65l.07,.09c.19-.94-1.17-.36-1.14-1-1.87,0-3.68-.55-5.43-.64l.18,.74-.61-.06c-.16-.17-.2-.58,.23-.54-.22-.42-.74,.33-.76,.49-.84-.32,.36-.84,.09-.87l-.36,.04,.08,.09c-.3,.29-.33,.61-.85,.56-.33-.16-.16-.46-.29-.49,0-.05-.04-.08-.2-.03l-.77-.08,.29,.59c-.35,.28-.72-.05-.39,.61-.49-1.02-2.86-.44-3.17-.77-.49,.4-.96,.38-1.54,.31,.14,.13,.21,.78-.3,.68,.23-1.33-.9-.61-1.27-1.59,.34,.65-1.44,.11-.9,1.04-.42-.12,0-.5-.31-.83-1.02,.49-2.19-.42-3.43-.3-.03,.18,.17,.45-.11,.7l-.62-.91c-.25,.08-.27,1.01-.69,.38,.06,.15,.14,.38-.02,.43-2.38-.95-4.98,.49-7.36-1.24,.32,.36,.09,.38-.16,.38,.16,.09-.02,.43,0,.67l-1-.71c-.22,.65-1.1,0-1.24,.62l.33-.1c-.47,.73,.52,1.69,.41,2.64,.53-.82,1.22,1.32,2.08,.14,.17,.2-.17,.3-.08,.53,.22-.4,.47-.47,.91-.27l-.06,.1c1.28-.04,1.8,.39,3.22,.73l-.09-.48c.3,.08,.36,.23,.5,.35,.38-.7-.86-.08-.51-.85,.37,.98,2.17,.1,2.39,1.21,.47,.03-.12-.55,.36-.53l.11,.3,.14-.38c.31,.08,.45,.45,.45,.7-.07-.03-.22,.06-.3,.08,.39,.37,1.14-.07,1.27,.05l-.45-.2c1.3-.22,2.86,.23,4.13-.33l-.09-.23c.97-.38,.75,.27,1.81,.12l-.04,.05c.22-.22,.5-.32,.78-.28-.27,.25,.48,.53,.12,.8,1.05-.41,.52-.33,1.23-1.14l.15,.38c.24-.33,.27-.5,.79-.58-.44,.3,.32,.58-.18,.98,1.07,.85,1.65-.77,2.12,.43,.53-1.01-.93-.6-.64-.81-.23-.34,.44-.76,.78-.64,.35,.03,.56,1.33,1.44,1.33-.09,0-.1,.07-.18,.06,.32,.27,.66-.34,1.05,.1,.24-.61,.52,.05,.61-.74l-.81,.16c.46-.19,.92-1.11,1.66-.64-.06,.16-.29,.36-.45,.47,.21,.24,.43-.14,.65,.1-.09,.79-.99,.15-1.49,.74,.23,.34,.94-.55,.67,.3,.38-1.08,.86,.16,1.48-.65l-.05,.47c.1-.07,.3-.29,.47-.27l-.33,.61c.5-.51,.92,.49,1.39,.21-.97,0-.2-.58-.61-.93,1.21-.61,.66,1.26,2,1.06-.18,.06-.67-.3-.39-.51,.25,.1,.59,.29,.74,.55,.89-.08-.13-.49,.26-.78,.29,.58,.44-.23,.83-.4v.48c1,.33,.28-1,1.18-.61l-.4,.66,.48-.16-.11,.55c.52-.4,.68-.29,1.19-.12-.11-.34,.08-.87,.53-.88,.3,.29-.18,.45,.46,.4-.15,.3-.31,.67-.58,.22-.03,.16-.15,.3-.18,.45,.32,.34,.83,.09,1.06,.09-.09-.02-.19-.05-.25-.12l.93-.65c.14,.18,.02,.33-.09,.47,.19-.05,.32-.27,.59-.31-.08,.39-.07,.8-.46,.98l.88-.42c.06,.17,.44,.48,.33,.62,.48,.24,1.2-.74,1.85-.43,.03-.08,.1-.15,.24-.2,.6,.1,1.14,.59,1.86,.06l.4,.71c.56-.15-.54-.89,.4-1.14,.67-.22,.24,.6,.47,.8,.33-.35,.91-1.07,1.52-.49-.2,.13-.36,.03-.55,.08Zm6.94-.27c-.13,.1-.4,.41-.5,.13,.15-.55,.27-.29,.5-.13Zm10.53-1.19c-.1,.16-.25,.08-.43-.1,.13-.04,.27-.02,.43,.1Zm29.21-3.99v.02c-.32-.18-.21-.11,0-.02Zm.63,.19c.06-.07,.05-.14,.02-.2-.04,.12-.18,.14-.34,.11,.05,.12,.13,.21,.31,.1Zm-66.57,.46l.12,.13c-.28,.13-.2,0-.12-.13Z"/><path class="b" d="M84.58,63.99c-.04-.08-.05-.17-.06-.26-.05,.08-.05,.18,.06,.26Z"/><path class="b" d="M63.97,64.98s-.01,0-.02,0c-.01,.03-.02,.06-.02,.09l.04-.08Z"/><path class="b" d="M106.12,63.91c-.13-.07-.2-.15-.25-.24,0,.12,.06,.22,.25,.24Z"/><path class="b" d="M118.85,58.57l-.39,.14c.19-.03,.26,.07,.36,.14-.01-.11-.1-.27,.03-.29Z"/><path class="b" d="M122.42,61.41c.06-.06,.12-.01,.18-.07l-.03-.22c-.25,.02-.41,.21-.15,.3Z"/><path class="b" d="M119.28,60.15c.05,.4,.29,.26,.57,.17-.02,0-.03,0-.05,0,.06-.57-.23-.37-.52-.17Z"/><path class="b" d="M119.92,60.31c.08-.02,.17-.04,.26-.02,.02-.23-.11-.04-.26,.02Z"/><path class="b" d="M116.38,59.22c.14,.1,.06-.52,.14-.36,.13-.52-.86,.66-.14,.36Z"/><polygon class="b" points="119.56 61.48 119.44 60.99 119.3 61.39 119.56 61.48"/><path class="b" d="M117.35,61.2l.45,.12c0-.08,.04-.13,.11-.18-.27,0-.58-.09-.56,.05Z"/><path class="b" d="M117.91,61.15c.14,0,.28-.01,.35-.1-.08,0-.24,.03-.35,.1Z"/><polygon class="b" points="118.96 61.66 118.83 61.56 118.51 61.53 118.96 61.66"/><path class="b" d="M112.56,61.28l-.48,.16c-.04,.17,.09,.27,.27,.2,.11-.12,.29-.2,.21-.36Z"/><path class="b" d="M114.08,62.6c-.14-.1-.15-.21-.23-.37v.62l.23-.25Z"/><path class="b" d="M112.67,62.79c-.04,.17-.69,.52-.07,.46,.04-.17,.53-.33,.07-.46Z"/><polygon class="b" points="105.32 62.22 105.44 62.21 105.4 61.2 105.32 62.22"/><path class="b" d="M98.91,64.81c.58,.23,.12-.63,.65-.34,.13-.24-.43-.24-.3-.45-.34,.26-.53,.12-.36,.79Z"/><path class="b" d="M99.27,64.02c.05-.04,.11-.09,.17-.16-.1,.06-.15,.11-.17,.16Z"/><polygon class="b" points="26.51 58.57 26.15 58.34 26.37 58.7 26.51 58.57"/><path class="b" d="M25.76,59.29l-.05-.65-.25,.58c.08-.02,.25-.07,.31,.08Z"/><path class="b" d="M76.26,65.81l.03-.16c-.06-.17-.14-.18-.32-.21l.29,.36Z"/><polygon class="b" points="71.22 65.31 71.31 65.32 71.15 64.73 71.22 65.31"/><path class="b" d="M66.99,66.02c.17,.03,.38-.1,.55-.08-.38,.1-.59-.66-.55,.08Z"/></g><text class="c" transform="translate(25.37 53.96)"><tspan x="0" y="0">Services</tspan></text></svg>