<?xml version="1.0" encoding="UTF-8"?><svg id="a" xmlns="http://www.w3.org/2000/svg" viewBox="0 0 127.75 127.79"><defs><style>.b{fill:#ffbde3;}</style></defs><path class="b" d="M63.88,.02c15.34,0,30.69-.06,46.03,.03,7.63,.05,13.08,3.75,16.35,10.63,1.1,2.32,1.49,4.81,1.49,7.38V109.89c0,8.55-5.69,15.63-14.02,17.5-1.28,.29-2.57,.4-3.88,.4H17.86c-8.78,0-16.01-6.05-17.61-14.66-.2-1.08-.25-2.17-.25-3.26V17.96C0,9.11,5.92,1.98,14.58,.3c1.21-.23,2.43-.26,3.66-.26H63.87V.02Zm32.38,42.39h.02c.13-.28,.44-.35,.67-.51,3.13-2.11,6.08-4.42,8.28-7.55,.47-.67,.88-1.36,1.13-2.19-.4,0-.62,.2-.87,.32-3.78,1.9-7.75,3.25-11.86,4.2-.34,.08-.62,.13-.94-.17-4.67-4.35-10.28-5.38-16.28-4.06-7.15,1.57-11.75,8.11-12.42,15.24-.26,2.79-.09,5.59-.11,8.39,0,.55-.14,.75-.71,.71-1.65-.09-3.29-.24-4.92-.56-5.96-1.16-11.29-3.76-16.27-7.14-5.37-3.65-10.06-8.04-14.25-12.98-.22-.26-.44-.82-.81-.09-2.11,4.2-2.86,8.51-1.04,13.02,1.35,3.35,3.56,6.09,6.16,8.55,1,.95,2.1,1.77,3.23,2.64-.33,.13-.58,.03-.84,0-3.1-.53-5.98-1.71-8.8-3.03-.81-.38-.83-.39-.79,.5,.26,5.1,2.46,9.13,6.66,12.05,2.11,1.46,4.46,2.35,7.04,2.94-3.16,1.57-6.48,1.82-9.89,1.89,.75,2.19,2.14,3.78,3.85,5.09,3.8,2.9,8.21,4.31,12.85,5.12,1.33,.23,2.68,.31,4.05,.55-8.4,5.61-17.85,7.11-27.7,6.98,.04,.24,.21,.28,.34,.36,1.74,1.04,3.55,1.95,5.44,2.67,10.06,3.88,20.46,4.93,31.09,3.35,11.3-1.68,20.97-6.6,28.62-15.16,7.02-7.85,10.97-17.09,11.98-27.58,.24-2.47,.15-4.95,.13-7.43,0-.32-.04-.61,.29-.84,2.44-1.72,4.18-4.08,5.76-6.56,.29-.46,.73-.84,.81-1.43,.09,0,.14,0,.06-.09l-.06,.1c-.26-.08-.46,.09-.68,.18-2.14,.88-4.33,1.64-6.6,2.14-.87,.19-1.73,.53-2.65,.39h.03Z"/></svg>