<svg id="Logo" xmlns="http://www.w3.org/2000/svg" viewBox="0 0 123.92 74.52"><defs><style>.cls-1{fill:#fff;}</style></defs><path class="cls-1" d="M36.62,18.68a.78.78,0,0,1,.2.52c0,.38-.15.56-.46.56a.36.36,0,0,1-.24-.09,9.85,9.85,0,0,0-1-.73q-3.21,11.85-7.77,17a1.65,1.65,0,0,1-1.3.54,3.58,3.58,0,0,1-1.63-.43,10.83,10.83,0,0,1-3.61-1.58,4.64,4.64,0,0,1-1.6-3.57c0-.46,0-.95,0-1.48a42.65,42.65,0,0,1,1.46-10.77,57.52,57.52,0,0,0-4.53,5.71,37.75,37.75,0,0,0-4,6.75,27.86,27.86,0,0,1-1.66,3.45,3.27,3.27,0,0,1-1.28,1,5.89,5.89,0,0,1-2.05.74q-.39,0-.39-.33a2,2,0,0,1,.23-.75,70.44,70.44,0,0,0,3.84-11.1q1.94-7,1.94-10.1a3.46,3.46,0,0,0-.08-.8A25.9,25.9,0,0,0,8,15a31.91,31.91,0,0,0-4.34,2.36A2,2,0,0,0,2.7,19a3.9,3.9,0,0,0,.37,1.54.74.74,0,0,1,.09.32.27.27,0,0,1-.31.31.86.86,0,0,1-.65-.39C.68,19,0,17.74,0,17.2S.82,15.83,2.34,15a33,33,0,0,1,4.84-1.91,38.4,38.4,0,0,0,4.16-1.51l.19-.56a.6.6,0,0,1,.59-.42,4.33,4.33,0,0,1,2.1,1.06,2.56,2.56,0,0,1,1.17,2.15c0,.21,0,.63-.09,1.27A50.4,50.4,0,0,1,14,20.8q-1.06,4-1.86,6.41,1.62-2.36,5.24-7.1,3.49-4.59,4.09-5.16a24.53,24.53,0,0,1,.78-2.62c.28-.65.67-1,1.15-1a1.9,1.9,0,0,1,.54.09q2,.63,2,1.23a1.33,1.33,0,0,1-.44.82L24.3,14.85l0,0a49.13,49.13,0,0,0-2.55,13.89c0,.52,0,1,0,1.54a6.29,6.29,0,0,0,.93,3.18,2.28,2.28,0,0,0,1.93,1.23A3,3,0,0,0,27,33.22a38.44,38.44,0,0,0,3.81-7.08,38.58,38.58,0,0,0,2.88-9.06,4.12,4.12,0,0,1-.87-2.8,14.52,14.52,0,0,1,.61-3.74c.21-.8.54-1.21,1-1.21s.9.35,1.48,1a2.82,2.82,0,0,1,.65,1.84,45,45,0,0,1-1.07,5.25C35.64,17.63,36,18,36.62,18.68Z"/><path class="cls-1" d="M45.06,30.93q-4.52,5.79-6.36,5.78a3.74,3.74,0,0,1-2.21-1.21c-.93-.43-1.4-1-1.4-1.74a3.28,3.28,0,0,1,0-.43,31.44,31.44,0,0,1,1.36-5.63c-.46-.24-.69-.46-.69-.67s.13-.26.39-.26a1.2,1.2,0,0,1,.61.17,23.55,23.55,0,0,1,3-5.28c.57-.7,1.08-1,1.54-1a6,6,0,0,1,1.56.54c-.06-.38,0-.59.32-.66h.87c.54,0,.8.1.8.28s0,.15,0,.32a2.1,2.1,0,0,0-.06.48c0,.45,0,1,0,1.66s0,1.09,0,1.32a3.68,3.68,0,0,1-1.27,3.21,4.28,4.28,0,0,1-2.6.84,13.19,13.19,0,0,1-2.53-.41,10.22,10.22,0,0,0-.7,2.25,14.64,14.64,0,0,0-.49,3.75c0,.65.22,1,.62,1a2.08,2.08,0,0,0,.57-.11q2.16-.77,6-4.65a.69.69,0,0,1,.48-.24c.24,0,.35.11.35.33A.69.69,0,0,1,45.06,30.93Zm-2.18-8.21c0-.49-.1-.73-.31-.73a1.17,1.17,0,0,0-.6.3,11.81,11.81,0,0,0-3.19,5.15c.24,0,.68.07,1.3.11a2.88,2.88,0,0,0,2.25-.69A2.72,2.72,0,0,0,42.94,25C42.9,25.65,42.88,24.89,42.88,22.72Z"/><path class="cls-1" d="M69.46,7.38a.48.48,0,0,1,.23.37q0,.36-.45.36a.69.69,0,0,1-.35-.1,3.51,3.51,0,0,0-1.3-.42c-.77,0-1.62.75-2.55,2.26q-5.12,8.35-7.45,22.23c.32-.31.75-.79,1.3-1.45.32-.38.55-.57.7-.57.34,0,.37.19.1.57A13.59,13.59,0,0,0,57.33,36c-.15.46-.34.69-.56.69a.79.79,0,0,1-.41-.17c-.62-.42-1-.67-1-.74a1.26,1.26,0,0,1-.37-1,3.78,3.78,0,0,1,.09-.75q.8-4.29,1.32-6.39a59.19,59.19,0,0,1-4.12,5.23,21.79,21.79,0,0,1-3.33,3.3,2.58,2.58,0,0,1-1.19.54,2,2,0,0,1-1-.54,2.08,2.08,0,0,1-1.2-1.73,2.62,2.62,0,0,1,0-.37A18.72,18.72,0,0,1,48,27.67a25.74,25.74,0,0,1,4.79-6.14,2.34,2.34,0,0,1,1.56-.8c.48,0,1.35.61,2.58,1.76a.41.41,0,0,1,.17.32q0,.3-.39.3a.79.79,0,0,1-.28-.06,2.06,2.06,0,0,0-2.12,0,17.91,17.91,0,0,0-3.84,4.52A17,17,0,0,0,47.6,34.3c-.06.47.07.7.38.7a2.45,2.45,0,0,0,1.5-.87A50,50,0,0,0,53.92,29a25.61,25.61,0,0,0,3.13-4.8,12.19,12.19,0,0,0,.61-1.71A70.47,70.47,0,0,1,62,10.84a18.19,18.19,0,0,1,3.27-5.09,1.49,1.49,0,0,1,1-.51,2.53,2.53,0,0,1,1.34.62C68.2,6.37,68.83,6.87,69.46,7.38Z"/><path class="cls-1" d="M84.76,7.38a.47.47,0,0,1,.22.37c0,.24-.15.36-.44.36a.76.76,0,0,1-.36-.1,3.41,3.41,0,0,0-1.3-.42c-.77,0-1.61.75-2.54,2.26q-5.11,8.35-7.46,22.23a17.67,17.67,0,0,0,1.3-1.45c.33-.38.56-.57.71-.57.33,0,.37.19.09.57A13.73,13.73,0,0,0,72.62,36c-.15.46-.33.69-.56.69a.77.77,0,0,1-.4-.17c-.62-.42-1-.67-1-.74a1.27,1.27,0,0,1-.38-1,3.23,3.23,0,0,1,.1-.75q.8-4.29,1.32-6.39a59.19,59.19,0,0,1-4.12,5.23,21.26,21.26,0,0,1-3.34,3.3,2.54,2.54,0,0,1-1.19.54,2.07,2.07,0,0,1-1-.54,2.09,2.09,0,0,1-1.21-1.73,1.73,1.73,0,0,1,0-.37,18.72,18.72,0,0,1,2.48-6.42,25.74,25.74,0,0,1,4.79-6.14,2.34,2.34,0,0,1,1.56-.8c.48,0,1.34.61,2.58,1.76a.45.45,0,0,1,.17.32q0,.3-.39.3a.74.74,0,0,1-.28-.06,2.06,2.06,0,0,0-2.12,0,17.91,17.91,0,0,0-3.85,4.52A17.09,17.09,0,0,0,62.9,34.3c-.06.47.06.7.37.7a2.47,2.47,0,0,0,1.51-.87A52.61,52.61,0,0,0,69.22,29a25.43,25.43,0,0,0,3.12-4.8A12.29,12.29,0,0,0,73,22.53a69.59,69.59,0,0,1,4.31-11.69,18.19,18.19,0,0,1,3.27-5.09,1.49,1.49,0,0,1,1-.51,2.47,2.47,0,0,1,1.34.62Z"/><path class="cls-1" d="M82.36,23.59A75.3,75.3,0,0,1,80,31.94a13.56,13.56,0,0,0,1.49-1.77.34.34,0,0,1,.26-.17c.19,0,.22.18.07.52q-.09.21-1.56,2.55a18.94,18.94,0,0,0-1.64,3.16.61.61,0,0,1-.61.43,2.8,2.8,0,0,1-1.21-.43q-.48-.25-.48-.39a1.43,1.43,0,0,1,.2-.48,30.22,30.22,0,0,0,2.23-5.91,33,33,0,0,0,1.32-6c0-.56,0-.84-.16-.84s-.31.14-.6.41L78.2,24.13c-.41.37-.61.39-.61.05a.69.69,0,0,1,.16-.37,26.23,26.23,0,0,1,1.86-2.32.84.84,0,0,1,.58-.32,1.79,1.79,0,0,1,.87.41,7.15,7.15,0,0,1,1,.28,1.06,1.06,0,0,1,.43,1A4.47,4.47,0,0,1,82.36,23.59ZM85,15.45a.62.62,0,0,1,.3.5c0,.36-.53.92-1.6,1.67a2.57,2.57,0,0,1-2,.52,2.49,2.49,0,0,1-1-.4.8.8,0,0,1-.19-.24c0-.08-.06-.14,0-.19s.11-.06.22,0a21.94,21.94,0,0,0,2.25-2.14c.28-.32.49-.48.61-.48A3.82,3.82,0,0,1,85,15.45Z"/><path class="cls-1" d="M98.46,29.61q-1.11,1.7-2.9,4.91c-.22.56-.44,1.11-.65,1.67-.17.39-.4.58-.69.58a2.7,2.7,0,0,1-1-.28c-.49-.2-.73-.4-.73-.6a1.86,1.86,0,0,1,.24-.57,32.08,32.08,0,0,0,2.16-6.12,19.33,19.33,0,0,0,.87-5.87c0-.55-.15-.82-.37-.82s-.4.16-.72.47a39.06,39.06,0,0,0-8.11,12.23c-.28.63-.62.95-1,.95a3.76,3.76,0,0,1-1.36-.47c-.25-.11-.38-.22-.39-.32a2.49,2.49,0,0,1,.21-.52,45.24,45.24,0,0,0,2.13-6,31.26,31.26,0,0,0,1.29-6.12c0-.44,0-.67,0-.67s-.19.17-.52.51-.8.76-1.4,1.3a.5.5,0,0,1-.37.16c-.17,0-.26-.06-.26-.2a.48.48,0,0,1,.19-.33c.53-.69,1.23-1.53,2.1-2.55a.78.78,0,0,1,.57-.32c.3,0,.56.22.78.65,1,.3,1.48.76,1.42,1.38a39.09,39.09,0,0,1-2.1,7.38,33.49,33.49,0,0,1,3.62-5.36c1.59-2,2.76-3.15,3.53-3.51a2.54,2.54,0,0,1,.82-.26,1.69,1.69,0,0,1,.78.41c1,.36,1.54,1,1.53,1.79a22.54,22.54,0,0,1-.64,4.18,36.15,36.15,0,0,1-.93,3.7l1.38-1.79a.41.41,0,0,1,.3-.18c.18,0,.28.11.28.35A.85.85,0,0,1,98.46,29.61Z"/><path class="cls-1" d="M113.4,23.09Q107.7,52.7,98.57,52.68c-2.19,0-4.57-1.21-7.12-3.63a1,1,0,0,1-.35-.68c0-.36.17-.54.5-.54a.8.8,0,0,1,.5.2c2,1.72,3.83,2.59,5.43,2.59q7.66,0,12.77-22.49a38.79,38.79,0,0,1-5.41,7.63,2.51,2.51,0,0,1-1.65,1,3,3,0,0,1-1.66-.74,2.83,2.83,0,0,1-1.69-2.86,16,16,0,0,1,1.88-6,18.56,18.56,0,0,1,3.6-5.3,3,3,0,0,1,1.92-1,2.42,2.42,0,0,1,1.39.56c.08.06.57.5,1.49,1.32a.65.65,0,0,1,.28.49q0,.33-.45.33a1.57,1.57,0,0,1-.63-.17,2.29,2.29,0,0,0-1.1-.29,2.07,2.07,0,0,0-1.41.55A14.8,14.8,0,0,0,104,27.42a16.57,16.57,0,0,0-2,5.35,8.48,8.48,0,0,0-.09,1.14c0,.91.24,1.37.74,1.37a1.66,1.66,0,0,0,1.06-.5,22.7,22.7,0,0,0,4.39-5.48A27.56,27.56,0,0,0,111,23.22a6.16,6.16,0,0,0,.31-1.88c0-.47.11-.71.34-.71a3.39,3.39,0,0,1,1.37.79C113.44,21.73,113.57,22.28,113.4,23.09Z"/><path class="cls-1" d="M121,32c0,1.49-.79,2.5-2.47,3.05a3.6,3.6,0,0,1-.6,1.08,1.93,1.93,0,0,1-1.26.52,5.73,5.73,0,0,1-1.15-.06l-2.7-.41a.63.63,0,0,1-.54-.54c0-.33.4-.53,1-.59.88-.06,2.19-.22,3.91-.47a1.89,1.89,0,0,0,1.37-1.09,2.32,2.32,0,0,0,.24-1.1,13.69,13.69,0,0,0-1.17-4.13,11.32,11.32,0,0,1-1.07-3.84c.09-1.55,1.53-2.63,4.29-3.24.27-.06.41,0,.41.3s-.1.27-.3.35c-1.34.59-2,1.3-2,2.16a5.67,5.67,0,0,0,.19,1.25c.12.51.49,1.71,1.11,3.62A11.41,11.41,0,0,1,121,32Zm3-10.67a12.65,12.65,0,0,1-.44,2.68,1.9,1.9,0,0,1-.37.82,2.54,2.54,0,0,1-.64.27,3.27,3.27,0,0,1-.85.26c-.19,0-.28-.12-.28-.37a2.8,2.8,0,0,1,.08-.54,8.13,8.13,0,0,0,.34-2.55q-.11-.72.42-.9a3.8,3.8,0,0,1,1.17-.47C123.73,20.54,123.92,20.81,123.92,21.34Z"/></svg>